<svg xmlns="http://www.w3.org/2000/svg" viewBox="0 0 1143.27 637.06"><defs><style>.cls-1{fill:#a0616a;}.cls-2{fill:#d0cde1;}.cls-3{fill:#9695a3;}.cls-4{fill:#683c45;}.cls-17,.cls-22,.cls-23,.cls-5{fill:none;stroke-miterlimit:10;}.cls-5{stroke:#e8cd74;}.cls-17,.cls-23,.cls-5{stroke-width:2px;}.cls-6{fill:#84525c;}.cls-7{fill:#1e1617;}.cls-8{fill:#e5a6a6;}.cls-9{fill:#7e7d89;}.cls-10,.cls-20{fill:#3f3d56;}.cls-11{fill:#158c67;}.cls-12{fill:#b57d7d;}.cls-13{fill:#ce9797;}.cls-14{fill:#71709b;}.cls-15{fill:#04d89d;}.cls-16,.cls-20{font-size:26px;font-family:Consolas;}.cls-17{stroke:#59597a;}.cls-18{fill:#e8cd74;}.cls-19{fill:#ff6584;}.cls-21{fill:#db5374;}.cls-22{stroke:#04d89d;}.cls-23{stroke:#a8a6bc;}.cls-24{fill:#876b6b;}.cls-25{fill:#b28e8e;}.cls-26{fill:#967777;}.cls-27{fill:#d15270;}.cls-28{fill:#a9a8ba;}.cls-29{fill:#fff;}</style></defs><g id="receivers"><path class="cls-1" d="M912.24,223.31s-16,9.16-1.14,21.77,14.66,3.56,14.66,3.56l-4.35-21Z" transform="translate(-106.44 -70.87)"/><polygon class="cls-2" points="953.01 205.86 941.55 201.27 908.7 263.18 905.47 323.72 953.01 205.86"/><path class="cls-2" d="M825.57,284.06s-72,50.45-34.4,215.09l40.36-77.51Z" transform="translate(-106.44 -70.87)"/><path class="cls-3" d="M825.57,284.06S898,224.45,1048,272.14c0,0-88,205-65.12,237.55,0,0-115.11,51.37-191.7-10.54,0,0,14.68-39.44,15.14-59.16S820.77,287.45,825.57,284.06Z" transform="translate(-106.44 -70.87)"/><path class="cls-4" d="M926.54,254.52a17.55,17.55,0,0,1,.85-2.73c3.2-7.4,67.86,9.8,67.86,9.8s3.67,28.66-2.52,31.65-51.37,12.38-69.25-4.13" transform="translate(-106.44 -70.87)"/><path class="cls-1" d="M997.12,171.71s14.59,33.33,14.59,41.67,2.08,45.83-7.29,53.12S977.33,282.13,962.75,280L948.17,278h0s-5.21-2.08-15.63-17.71-10.67-23-10.67-23L909,192.34l40.59-36.68,49.07,11.46Z" transform="translate(-106.44 -70.87)"/><ellipse class="cls-5" cx="860.61" cy="162.81" rx="7.11" ry="6.65"/><path class="cls-6" d="M957.41,194s8-9.4,10.32-4.13S986.31,234,980.8,237.11s-12.84,7.63-14,0S955,196.47,957.41,194Z" transform="translate(-106.44 -70.87)"/><path class="cls-7" d="M943.89,134.56s3.66,12.15,11.23-4.13c0,0,11.7-8.94,8.94,4.25s10.32,5.38,10.32,5.38,12.38-7.34,6.65,2.29,3.21,3.9,3.21,3.9,33.71-7.1,8.94,12.16c0,0,.46,4.13,16.51-.92s-8.48,12.84-8.48,12.84a18.33,18.33,0,0,0,.35,11.93c2.45,6.12-.84-3.08-6.08-10.09s-4.82-.92-10.09-.92-9.86-1.15-12.84,5.27-10.17-6.19-12.08-3.21-.53,6.19-13.37,4.59c0,0-5.05,9.4-19.49,8.94s-2.76,6.42-3.67,11.24-.46,5.27-6.42,7.1c0,0-2.53,6.88,5.27,16.28,0,0,6.65,32.79-9.17,3.44,0,0-3.81-6-19-11.92-5.28-2.06,10.57-11.37,6.76-12.15-12.38-2.52-1-9.4-1-9.4s4.77-3.71-5.05-10.55c-7.56-5.27,6.65-10.2,6.65-10.2s8.29.35,1.15-7.11c-4.93-5.16,14.45-6.31,17.2-7.91s7.11-24.31,11.92-8.95S937,129.06,943.89,134.56Z" transform="translate(-106.44 -70.87)"/><path class="cls-8" d="M794.84,349.18s17.43,41.74,5-3.66c0,0-2-7.8-.31-9.18s13.07,4.17,0-10.09l-2.57-2.8,2.4-5s-24.6,16.93-15,46.1,8.64,13.73,6.8-3.4S804,404.68,794.84,349.18Z" transform="translate(-106.44 -70.87)"/><path class="cls-2" d="M1235.55,363.17s16.06,40.59,13.76,58.47l-20.18-15.59Z" transform="translate(-106.44 -70.87)"/><polygon class="cls-9" points="941.55 201.27 830.89 418.18 854.27 447.07 889.36 431.94 941.55 201.27"/><path class="cls-10" d="M1098.89,262.59l-50.9,9.55s-81.39,211-92.06,213.25,38.86,34.39,54,39,141.25,29.35,141.25,29.35,28,8.81,30.73-24,38.54-221.32,38.54-221.32-45.88-33.94-71.1-50.45S1098.89,262.59,1098.89,262.59Z" transform="translate(-106.44 -70.87)"/><path class="cls-11" d="M1087.44,259.76l-11-8s-10.54,25.48-15.13-1.85c0,0-18.34,34.12-7.34-28.7,0,0-27.51,20.53-6-6.47l32.56-59.11,4.59,8.25-10.55,59.4Z" transform="translate(-106.44 -70.87)"/><path class="cls-12" d="M1105.77,262.59,1103,280.15s6.88,23.17,54.57,3.91l20.18-42.74Z" transform="translate(-106.44 -70.87)"/><path class="cls-8" d="M1163.55,262.59s-15.13,15.51-36.23,13.68-40.46-12.93-44.54-24.48-18.1-20.79-.31-83.23,107.22,13.73,107.22,13.73L1182.36,243Z" transform="translate(-106.44 -70.87)"/><path class="cls-13" d="M1112.19,195.55s11-14.67,8.71,2.3-10.08,29.35-16.05,32.1-11.92-3.77-4.58-15.18S1112.19,195.55,1112.19,195.55Z" transform="translate(-106.44 -70.87)"/><path class="cls-14" d="M1220.44,308.37s28.41,43.57,18.32,103.64-31.18,102.37-56.86,117.68-68.21,23.11-72.86-14S1220.44,308.37,1220.44,308.37Z" transform="translate(-106.44 -70.87)"/><path class="cls-1" d="M1233.64,460.45c4.67-3,15.52-12.58,16-37.47.67-31.76-10.92-9.59-10.92-9.59a41.75,41.75,0,0,1-19.3,24.36s-9,9.47,2.72,6.63-7.75,8.87-7.75,8.87-1,3.61,6.6.93,8.1-1.35,6.5-.09c-2.51,2-11.83,4.77-12,6.45-.26,2.49,2.72,2.72,12.58-2.55,0,0-13.77,9.51-2.71,5.93" transform="translate(-106.44 -70.87)"/><path class="cls-8" d="M1194.74,357s-21.56.9-27.52-11.46c0,0-67,142.62-61.45,162.8s20.18,52.37,61.45,21.37c0,0,18.81-42.47,22.47-91.08S1192.9,360.65,1194.74,357Z" transform="translate(-106.44 -70.87)"/><path class="cls-8" d="M1166.76,358.36l-1.83-25s.46-21.78,6.42-3.44c0,0,2.87,5.85,6.42-7.34,0,0,17-39.91,9.17,0,0,0,.92,5.87,4.59-4.17s11.46-16.46,5,5.55c0,0-3,10.89,6-5.55,0,0,9.61-10.19,3.66,5.09,0,0-6.44,14.79,1.94.58s9.76-5.28,3,8.25S1191,363.17,1191,363.17Z" transform="translate(-106.44 -70.87)"/><path class="cls-14" d="M1162.21,274.27s17.43,15.3,12.71,20.11-58.27,23.53-89.33-6.88l11.28-20.88,7.64,4-.91,5.76s-2.87,23.69,54,7.64Z" transform="translate(-106.44 -70.87)"/><path class="cls-15" d="M1070.46,143.27s18.34-18.8,41.73-20.63S1180.06,130,1192,152s28,100,28.43,120.15-6-4.13-6-4.13.92,20.64-18.8-.46c0,0-.92,23.39-11.47-3.21,0,0-6,16.05-8.71-5,0,0-13.76,12.84-8.72.46s5.74-16.28,5.74-16.28-29.58,48.84-6.19-12.16c0,0,4.58-31.64,7.79-43.1,0,0-9.63,10.16-5-5.93,0,0-7.34,10.59-7.8,0,0,0-16,3.63-15.81-4.16,0,0-11.7,11-14,0,0,0-16,3.21-11-7.34,0,0-31.19,11.46-13.3-3.67,0,0-25.69,10.09-16.05-4.13,0,0-24.77,18.35-11.93-1.83,0,0-23.85,20.64-16.05,10.09s21.56-32.1,21.56-32.1S1079.63,148.78,1070.46,143.27Z" transform="translate(-106.44 -70.87)"/><path class="cls-13" d="M1184.65,214.77l-6.88,22.78S1198.92,223.52,1184.65,214.77Z" transform="translate(-106.44 -70.87)"/><text class="cls-16" transform="translate(967.49 560.25)">Recipients</text><line class="cls-17" x1="1033.82" y1="217.32" x2="1037.49" y2="234.28"/><line class="cls-17" x1="1045.28" y1="213.65" x2="1053.54" y2="229.7"/><line class="cls-17" x1="1020.52" y1="218.69" x2="1019.6" y2="231.07"/><line class="cls-17" x1="1004.93" y1="218.69" x2="1000.34" y2="230.16"/><line class="cls-17" x1="998.96" y1="209.06" x2="983.83" y2="217.77"/><line class="cls-17" x1="983.37" y1="201.26" x2="995.29" y2="198.51"/><line class="cls-17" x1="1068.48" y1="223.51" x2="1054.45" y2="209.52"/></g><g id="trustees_hinten" data-name="trustees hinten"><ellipse class="cls-18" cx="471.56" cy="116.54" rx="25.45" ry="25.8"/><path class="cls-18" d="M589.94,166.43,636,127.22s6,2.29,4.58,5-7.11,10.32-7.11,10.32l5.28,5-2.3,2.07-4.81-3.44,2.52,8-7.57-5.73,3,6.88-6.43-3L598,176.06Z" transform="translate(-106.44 -70.87)"/><path class="cls-10" d="M465.43,135,415,137.31l-33.25,21.32,63.52,96.08L523,220.08s-36.23-64.2-49.3-81.4S465.43,135,465.43,135Z" transform="translate(-106.44 -70.87)"/><path class="cls-11" d="M411.08,152.9l3.9-15.59,10.32-.92L423,143.5s28,23.84,36.23,19.49l2.52-9.17s20.86,23.15-6.65,21.78C455.11,175.6,410.39,165.28,411.08,152.9Z" transform="translate(-106.44 -70.87)"/><path class="cls-12" d="M425.07,122.17s-3.9,20.41-1.83,23.16,26.59,21.56,36,17.66l8.25-32.33Z" transform="translate(-106.44 -70.87)"/><path class="cls-15" d="M370.5,176.06s11.46-44.79,48.84-14.14c0,0,27.21,49.83,41.73,78.57L538.57,207l18.35,23.85L432.48,334.66s-23,8.33-23-2.45L394.8,307.68,370.27,224.9S368.89,184.08,370.5,176.06Z" transform="translate(-106.44 -70.87)"/><path class="cls-8" d="M537.2,210l8.71-7.79,3.67-8.49s3.21-6.19,4.13.69,3.21,4.59,3.21,4.59l6-3.67.46-5.73s2.52-8,3.67-.46.68,5.5.68,5.5,1.38-16,3.21-.23l.92,6s1.84-21.09,3.44-2.06l-.23,5.27.92-4.35s4.13-3,.92,5.73-17.2,17-17.2,17l-12.61,8Z" transform="translate(-106.44 -70.87)"/><path class="cls-8" d="M478.8,98.91s2.07,36.41-5.17,44.28-42-6-42-6L430,127.88s-6,2.69-3.52-12.83,8.07-5.79,8.69-3.31,1.45-12.21,1.45-12.21L461.84,89.4Z" transform="translate(-106.44 -70.87)"/><path class="cls-13" d="M478.8,108.84s5.59,10.55,5.18,13-6.83,2.89-6.83,2.89S475.29,111.74,478.8,108.84Z" transform="translate(-106.44 -70.87)"/><path class="cls-19" d="M433.29,82.71s9.52-13.45,8.69-8.07,14.48-3.72,14.48-3.72,13.66-.83,2.28,4.34,16.13-1.65,16.13-1.65,20.69-1.24,1.87,6.41c0,0-9.73,5,3.51,7,0,0,19.45,2.9,5,6,0,0,27.51,3.93,1,9.93,0,0-2.27,5.59-8.48,0s-1.86,1.45-1.86,1.45,1.86,6.41-6.21-2.27c0,0-3.93,1.86-10.55-3.31,0,0,5.59,8.27-9.93,3.72,0,0-3.52,7.24-9.93,3.93,0,0,4.55,2.9,1.66,11.17,0,0-2.07,13.65-4.56.62S430,108,430,108s-8.07,17.17-1.45,21.51,1.45.42,1.45.42l1.66,9.31-1.87,10.75s-3.31,9.93-3.31.21-3.51,3.1-3.51,3.1-6.42,9.11-4.76-.62c0,0,4.55-7.44,2.69-9.93l-3.1,5.17s-5.38,7.87-1.45-2.89,2.89-23.79,2.89-23.79l-3.1-10.14s-10.34,5-4.55-2.69,4.55-14.07,4.55-14.07-13.24-1.86-1.65-5.37a102,102,0,0,0,20.27-8.69Z" transform="translate(-106.44 -70.87)"/><text class="cls-20" transform="translate(0 55.79)">Trustees</text><path class="cls-21" d="M418.34,118.73s3.75-10.7,4.67,0,2.44-2.45,2.44-2.45,1,13.73,4.53,11.6c4.26-2.58-.32,32.81-3.76,26.39,0,0,1.75-12.1-2.18-3.21-5,11.36-9.9,4.35-3.79-5.12,0,0,.77-3.45-2.86,2.95s-2.94-1.73-.5-7.85,2.33-20.85,2.33-20.85Z" transform="translate(-106.44 -70.87)"/><line class="cls-22" x1="329.87" y1="83.25" x2="324.67" y2="96.86"/><line class="cls-22" x1="338.73" y1="88.91" x2="335.07" y2="100.98"/><line class="cls-22" x1="346.22" y1="91.35" x2="344.24" y2="103.43"/><line class="cls-22" x1="352.8" y1="92.12" x2="355.09" y2="104.65"/><line class="cls-22" x1="354.48" y1="86.92" x2="362.12" y2="95.33"/><line class="cls-22" x1="320.54" y1="83.86" x2="315.96" y2="92.73"/><line class="cls-22" x1="310.91" y1="82.49" x2="308.16" y2="86.77"/><line class="cls-22" x1="310.76" y1="67.97" x2="306.78" y2="74.23"/><path class="cls-1" d="M250.11,278.1S245.3,321.2,229.48,343s-24.08,21.09-24.08,21.09-12.38,2.3-2.52,3.67-4.13,6.19-3.44,7.57,8-.92,8-.92-23.38,9.63,1.15,3.44c0,0-19.72,12.61,1.15,3.21,0,0-12.84,8.49,1.6,1.38s22.7-12.16,22.7-12.16,38.53-19.49,44-44-18.57-47.93-18.57-47.93Z" transform="translate(-106.44 -70.87)"/><polygon class="cls-14" points="151.01 158.62 135.65 204.47 170.73 218.69 151.01 158.62"/><path class="cls-2" d="M257.45,229.48l58.24-26.14,32.11,2.3,44.94,22.93-16.05,130.7s-83.47,21.09-93.1,11.92S257.45,229.48,257.45,229.48Z" transform="translate(-106.44 -70.87)"/><path class="cls-4" d="M347.34,217.1s-14.22,16.51-30.27,2.75l-.92-11L345.5,207Z" transform="translate(-106.44 -70.87)"/><ellipse class="cls-18" cx="141.11" cy="234.42" rx="17.7" ry="15.91"/><path class="cls-18" d="M231.77,299.19l-31.64-46.32s2.29-6,4.35-3.9l2.07,2.07,8-5.5,3,4.12-7.33,5.05,9.4-2.3L213,257.69l7.11-2.07,3,3-6.65,4.12,3.21.23v2.52l20.63,27.75Z" transform="translate(-106.44 -70.87)"/><path class="cls-1" d="M342.75,315.7s-78-3.67-78-7.34-8.71-15.59-6-2.75c0,0,.69,4.59-3.44.46s-11.93-13.3-4.59,2.06c0,0-14.21-17.19-2.29,2.07,0,0-15.13-15.82-2.52,1.83,0,0-10.32-7.57-.92,3.44s17,8,17,8,73.83,35.77,103.64,41c0,0,14.22,6.42,20.18,4.82s14.68-13.3,17.66-52.51-3.9-39.44-3.9-39.44l-46.09,4.81S343.67,306.07,342.75,315.7Z" transform="translate(-106.44 -70.87)"/><path class="cls-1" d="M304,174.91s5,38.29,14.45,40.59,22.47,7.56,25.91-2.53S348,199.68,348,199.68s9.17,3.66,9.4-11.47-11.24-4.59-11.24-4.59l4.13-11.23-8-15.59L312,158.4Z" transform="translate(-106.44 -70.87)"/><path class="cls-7" d="M318.68,200.82s8.94-3.9,13.07.46-1.38,3.9-1.38,3.9H318.68S311.11,205.87,318.68,200.82Z" transform="translate(-106.44 -70.87)"/><path class="cls-6" d="M318,181.1s4.35-7.79,8.25,0L326,199s-5.5,4.58-8.94-.69S318,181.1,318,181.1Z" transform="translate(-106.44 -70.87)"/><path class="cls-7" d="M305.61,185.46s-8.95-.92-7.57-8,.69-11,6.65-9.63c0,0,1.14-1.14-1.15-4.81s-2.29-7.57,1.84-7.57c0,0-3-12.15,4.81-8.71,0,0,6.19-5.51,5.5,3.21,0,0,5.05,4.58,6.42-6.42,0,0,1.61-8.95,7.8-3.67,0,0,3,6,8.94,2.75,0,0,13.76-6,9.86,7.8,0,0,8.49,1.37,1.38,9.17,0,0,19.49,10.55,4.13,12.61,0,0,17.19,6.19,3.21,11.92,0,0-3.67,6-5.28,1.84,0,0-6.19,20.18-5.73-.69,0,0-8.71-6.19-2.29-8.94,0,0,8-6.19-3.9-10.09,0,0-6.19,1.37-6.19-4.82,0,0-1.84-5-7.57,1.84,0,0-3.21,4.58-7.11-1.61s-5,3.9-5,3.9-2.52,9.17-5.05,2.75c0,0,0,7.57-4.12,8.26Z" transform="translate(-106.44 -70.87)"/><path class="cls-14" d="M359.26,237.28s31.19-31.18,43.57,4.59c0,0,4.13,32.1,7.34,50l-65.58-2.75S355.13,247.37,359.26,237.28Z" transform="translate(-106.44 -70.87)"/><line class="cls-23" x1="157.59" y1="206.92" x2="137.71" y2="199.58"/><line class="cls-23" x1="301.89" y1="212.73" x2="239.07" y2="212.96"/></g><g id="trustees_mitte" data-name="trustees mitte"><polygon class="cls-24" points="173.03 363.15 167.98 387 191.83 376.45 191.83 366.36 173.03 363.15"/><path class="cls-25" d="M289.1,442.27s-28-8.71-32.56-16c-3.34-5.33,5.45-31,10.5-44.67,1.89-5.11,3.25-8.52,3.25-8.52l21.56,1.37,32.56,45.86Z" transform="translate(-106.44 -70.87)"/><path class="cls-26" d="M246,402.38s9.63-21.56,22.47-23.39l-6,24.76S250.57,409.71,246,402.38Z" transform="translate(-106.44 -70.87)"/><path class="cls-10" d="M189.58,482.17s85.76-42.19,100-34.39,29.35,43.11,29.35,43.11-18.8,29.8-43.56,35.31-91.26,16.51-91.26,16.51Z" transform="translate(-106.44 -70.87)"/><ellipse class="cls-18" cx="53.82" cy="347.52" rx="26.83" ry="27.52"/><polygon class="cls-18" points="50.81 322.79 24.67 258.36 18.94 260.88 22.38 269.37 12.98 273.26 13.66 276.02 23.07 272.58 24.21 276.48 10.68 282.44 13.21 288.17 25.82 283.13 21.23 288.17 29.26 288.63 15.04 296.88 29.03 296.19 39.58 326.92 49.89 322.33 50.81 322.79"/><path class="cls-25" d="M159.77,445s17.89,33.93,29.81,37.14-4.59,55-4.59,55-33.93-42.65-41.27-83.46c0,0-.31-3.67-4.43-9.78s-5.81-10.4-6.58-16.21,3.21,1.53,3.21,1.53-4.89-18.8,2-3.52c0,0-2.75-21.4,3.36-1.52,0,0,1.23-27.37,4.74-.16,0,0,6.88,17.12,13,6.73,0,0,5.81-9.78,3.67,2.9C162.68,433.71,161.61,438.61,159.77,445Z" transform="translate(-106.44 -70.87)"/><path class="cls-27" d="M270.06,367.75s3.21-11.46,10.55-7.57c0,0,3.44-5.73,9.86-.68,0,0,8.94-8.72,18.8-.23,0,0,7.34-6.42,9.41,2.06,0,0,27.28,2.06,28.2,29.81,0,0,19,13.76,7.57,28,0,0-4.36,10.09,8.25,20.64s15.59,8,6.42,25.45c0,0,18.57,10.78,5.05,16.28,0,0,21.32,15.37-1.38,26.83s-33.71,36-33.71,36-3.9,17.43-24.3,8c0,0-3.67,14.9-19.26,13.3,0,0-11.7,1.6-7.57,11.69,0,0,6.42,4.13-.46,7.57,0,0-3,5,.92,8.48,0,0-.92,8.94-5.28-1.37,0,0-6.88-3.9-2.75-10.55a15.79,15.79,0,0,0,0-11.24S268,558.76,284.05,553c0,0,21.33-12.39,2.52-28.21,0,0-5.27,4.36-6.88-2.52,0,0-16.28,8-4.58-7.11,0,0-5.5-6,4.58-8.25,0,0,13.3-4.36,4.82-19,0,0-5.27-7.33,7.34-11.69,0,0,5.27-5.73-1.15-4.82s-15.13,7.8-4.81-14.21c0,0,8.25-8,3.89-11.24s-2.29-9.17,2.3-13.3S296.89,420,301,422.1,304.23,406,297.81,404s-8.49,11.47-9.17-7.34c0,0,2.29-5.73-3-7.56S283.82,379,283.82,379s-6.42,2.52-10.09-4.36C273.73,374.63,255.62,380.13,270.06,367.75Z" transform="translate(-106.44 -70.87)"/><path class="cls-14" d="M444.56,294.61l104.1-.92s11.47,53.65,17.89,69.7,17,35.78,12.84,49.07-89.89,2.76-89.89,2.76L452.82,395.5Z" transform="translate(-106.44 -70.87)"/><path class="cls-25" d="M563.34,302.86s-17.43-23.85-21.56,6.42,32.56,81.63,32.56,81.63l16.51-13.76S570.22,325.33,563.34,302.86Z" transform="translate(-106.44 -70.87)"/><ellipse class="cls-18" cx="453.08" cy="344.8" rx="31.3" ry="29.24"/><path class="cls-18" d="M570.9,392.29,612,349l-3.9-3.9,1.38-3,6.19,3.67L612,340l3.67-3.9,4.81,6.42,1.61-1.61-11.47-14.44,5.28-3.44,10.09,11-6.65-12.84,10.77,8.49,4.13-5.73s8.94.91,8.94,4.35-24.07,33.25-24.07,33.25L584.2,401.23Z" transform="translate(-106.44 -70.87)"/><path class="cls-25" d="M418,321.89s26.14-64.66,46.09,3.44c0,0,2.75,55.72-2.06,66,0,0,44,13.07,59.16,19.95s20-5.5,20-5.5,9.63-6.2,3.44,6.19,11-3.44,11-3.44,11.77-7.57,1.53,5.58.92,2.14.92,2.14,13.91-13,2,4.43,2.91-1.83,2.91-1.83,8.71-12.23,2,4l-2.14,4.74,4.12-6.73s4.44-7.64,1.84,1.38S561.5,433.87,556.46,438s-24.15.46-28.59-.45-105.17.15-108.84-3.22S405.58,368.44,418,321.89Z" transform="translate(-106.44 -70.87)"/><path class="cls-24" d="M491.8,285.43l-2.3,30.73s29.35,20.64,39.44,1.38S539,283.14,539,283.14Z" transform="translate(-106.44 -70.87)"/><path class="cls-25" d="M537.66,241.41,490,247.83,489,280.39s.46,9.17,9.18,19.26,17.42,19.26,32.56,1.83,13.3-30.72,13.3-30.72Z" transform="translate(-106.44 -70.87)"/><path class="cls-26" d="M519.77,260.21l-4.59,19.26s-.45,20.18,6.88,2.29S519.77,260.21,519.77,260.21Z" transform="translate(-106.44 -70.87)"/><path class="cls-7" d="M533.07,245.08s-17,17-14.22,5c0,0-7.33,11.92-19.26,12.84S495,311.11,495,311.11s6.42,10.55,6,18.35,2.75,22.47-5.51,9.63c0,0-.91,31.64-9.17,5.5,0,0-9.63,51.37-10.09,1.84,0,0,0-9.18-5-24.31,0,0-7.8-3.21-4.13-15.59,0,0-9.17-27.06-2.29-42.19s22.47-36.69,35.77-34.4c0,0,.92-8.25,22-4.12,0,0,8.72,2.29,11.93,5s9.17.46,11.92,8.25,4.59,23.39,1.83,36.23.92,33.94-19.26,42.2c0,0,7.34-15.14,10.09-24.77s2.29-4.13-1.37-22c0,0,4.58-2.75-.92-13.76C536.74,257,528.48,253.79,533.07,245.08Z" transform="translate(-106.44 -70.87)"/><path class="cls-14" d="M189.58,482.17s2.75,30.33-6.88,60.77a105,105,0,0,0,13.76-.69c9.63-.92,14.22-60.08,3.67-65.58Z" transform="translate(-106.44 -70.87)"/></g><g id="trustee_vorn" data-name="trustee vorn"><path class="cls-28" d="M433.78,466.35s-18.57,0-69.47,35.77S422.78,611.5,422.78,611.5l59.16-1.38,58.47-25.45s2.06-110.75-28.89-114.88S433.78,466.35,433.78,466.35Z" transform="translate(-106.44 -70.87)"/><path class="cls-11" d="M409,529.64s-27.52-71.54-67.41-1.38c0,0-13.76,64-6.2,75.67s59.16,33.71,79.11,37.83,32.33,2.07,39.21,6.88l23.39-14.44s-8.25-24.77-68.1-46.78C409,587.42,411.77,549.59,409,529.64Z" transform="translate(-106.44 -70.87)"/><path class="cls-15" d="M414.29,480.34l-12.38,7.34s12.38,30.72,40.36,34.39L448.69,506Z" transform="translate(-106.44 -70.87)"/><path class="cls-15" d="M454.19,504.64l4.13,15.6s19.26-14.22,16.05-29.81S454.19,504.64,454.19,504.64Z" transform="translate(-106.44 -70.87)"/><path class="cls-11" d="M508.76,470.25s26.14,71.54,9.18,108.23c0,0-35.77,18.8-38.53,21.55s-12.38,5.51-20.17,9.63l9.17,17,22-2.29s66-1.38,89.43-23.39C579.85,601,567,474.83,508.76,470.25Z" transform="translate(-106.44 -70.87)"/><path class="cls-15" d="M433.1,644.06s13.75-19.72,29.8-28c0,0,13.3,14.68,14.22,18.12s-23.39,14.44-23.39,14.44Z" transform="translate(-106.44 -70.87)"/><path class="cls-15" d="M479.41,600s11,15.59,11,24.31l-22,2.29-13.3-17Z" transform="translate(-106.44 -70.87)"/><path class="cls-1" d="M406.27,455.34l11,36.46s4.82,15.14,26.14,15.14,35.77-11,37.15-18.58,4.82-15.13-8.25-58.47-64.67,8.94-64.67,8.94Z" transform="translate(-106.44 -70.87)"/><path class="cls-1" d="M430.8,617.46s-14.21,6.42,1.84,2.75c0,0-14.22,9.63,3.21,5,0,0-10.55,10.09,1.83,3.21,0,0-12.84,10.09,1.38,3.67,0,0,4.58,2.3,17.42-2.75l11.93-2.75-9.17-17-10.55,4.59S442.27,611,430.8,617.46Z" transform="translate(-106.44 -70.87)"/><ellipse class="cls-18" cx="380.5" cy="607.48" rx="30.27" ry="29.58"/><path class="cls-18" d="M510.14,665.15l88.05,3.44s7.57,3.44,3.44,8.95h-5.27l-.23,13.75-7.34-.68V679.83l-8.25.69v8.71l-4.36-.23-.23-9.63-2.75.69.23,8.48-2.75.23-.69-8.71-55.26,1.83Z" transform="translate(-106.44 -70.87)"/><path class="cls-1" d="M456.48,646.35s10.55,11.47,11.93,13.76,2.75,7.79,2.75,7.79,3.67,17,6.88-1.83c0,0-2.29,16.51,4.13,0,0,0-4.13,15.13,3.66,0,0,0-3.66,16,4.59-.92,0,0,3.21-10.54,0-17.42s-9.63-11-13.3-13.53S456.48,646.35,456.48,646.35Z" transform="translate(-106.44 -70.87)"/><path class="cls-1" d="M406.27,455.34s-8.95-4.35-7.11,9,3.67,18.8,14.22,13.3S406.27,455.34,406.27,455.34Z" transform="translate(-106.44 -70.87)"/><path class="cls-6" d="M451.44,450.07s3.67-11,10.55-1.83c0,0,6.42,25.68,5,27.51s-11.46,10.55-16,.46Z" transform="translate(-106.44 -70.87)"/><path class="cls-2" d="M431.26,432.18s16.51,11.47,25.22.92c0,0,12.84,8.26,11.47-2.75,0,0,8.25,4.59,5.5-4.13,0,0,.69-9.4-6.65-7.79,0,0-3.9-8.95-12.61-6.19,0,0-8.25-7.11-11.23.91,0,0-.69-3.67-9.18-1.83,0,0-4.12-8.94-8.25,2.52,0,0-5.5.46-4.82,5.5,0,0-3-8.94-8.71,5.05,0,0-5.27,1.6-3,5,0,0-10.55-7.56-5.27,5.51,0,0-4.36,4.58-.69,18.34l3.21,2.06s2.06,16.28,3.21,15.6,1.6-3.9,1.6-3.9,2.3,11.92,3.9-1.61c0,0,.69-8.25,1.61-8.71s4.12-2.29,3.21-16.51c0,0-.46-4.59,3.21-3.9S426.68,439.52,431.26,432.18Z" transform="translate(-106.44 -70.87)"/><ellipse class="cls-29" cx="345.06" cy="463.96" rx="2.14" ry="2.34"/><ellipse class="cls-29" cx="345.36" cy="479.76" rx="2.14" ry="2.34"/><ellipse class="cls-29" cx="346.18" cy="499.5" rx="2.14" ry="2.34"/><ellipse class="cls-29" cx="346.96" cy="517.93" rx="2.14" ry="2.34"/></g></svg>