<svg xmlns="http://www.w3.org/2000/svg" viewBox="0 0 1268.1 578.95"><defs><style>.cls-1{fill:#a0616a;}.cls-2{fill:#d0cde1;}.cls-3{fill:#9695a3;}.cls-4{fill:#683c45;}.cls-16,.cls-24,.cls-35,.cls-42,.cls-5{fill:none;}.cls-5{stroke:#e8cd74;}.cls-16,.cls-24,.cls-25,.cls-26,.cls-31,.cls-35,.cls-42,.cls-43,.cls-44,.cls-5{stroke-miterlimit:10;}.cls-16,.cls-31,.cls-42,.cls-5{stroke-width:2px;}.cls-6{fill:#84525c;}.cls-7{fill:#1e1617;}.cls-8{fill:#7e7d89;}.cls-26,.cls-31,.cls-43,.cls-44,.cls-9{fill:#3f3d56;}.cls-10{fill:#158c67;}.cls-11{fill:#b57d7d;}.cls-12{fill:#e5a6a6;}.cls-13{fill:#ce9797;}.cls-14{fill:#71709b;}.cls-15{fill:#04d89d;}.cls-16{stroke:#59597a;}.cls-17{fill:#717084;}.cls-18{fill:#878799;}.cls-19{fill:#b7b7b7;}.cls-20{fill:#9b9b9b;}.cls-21{fill:#595959;}.cls-22,.cls-27{fill:#fff;}.cls-23{fill:#ddd;}.cls-24,.cls-25,.cls-26{stroke:#565656;}.cls-25{fill:#4d4d4d;}.cls-27{font-size:9.69px;font-family:Consolas;}.cls-28{fill:#9292a5;}.cls-29{fill:#525172;}.cls-30{fill:#8b8b9e;}.cls-31,.cls-43,.cls-44{stroke:#3f3d56;}.cls-31{opacity:0.72;}.cls-32{fill:#e2d6b3;}.cls-33{fill:#ff6584;}.cls-34{fill:#db5374;}.cls-35{stroke:#04d89d;}.cls-36{fill:#e8cd74;}.cls-37{fill:#876b6b;}.cls-38{fill:#b28e8e;}.cls-39{fill:#967777;}.cls-40{fill:#d15270;}.cls-41{fill:#a9a8ba;}.cls-42{stroke:#a8a6bc;}.cls-43,.cls-44{stroke-width:0.75px;}.cls-43{opacity:0.87;}.cls-44{opacity:0.5;}</style></defs><g id="Recipients"><path class="cls-1" d="M1155.25,294.46s11.21,6.4.8,15.21-10.25,2.48-10.25,2.48l3-14.65Z" transform="translate(-44.42 -83.58)"/><polygon class="cls-2" points="1135.23 249.57 1127.22 246.36 1104.28 289.6 1102.02 331.88 1135.23 249.57"/><path class="cls-2" d="M1016.3,338.27s-50.29,35.23-24,150.21l28.18-54.13Z" transform="translate(-44.42 -83.58)"/><path class="cls-3" d="M1016.3,338.27s50.6-41.64,155.34-8.33c0,0-61.5,143.17-45.48,165.91,0,0-80.4,35.87-133.88-7.37,0,0,10.25-27.54,10.57-41.32S1013,340.63,1016.3,338.27Z" transform="translate(-44.42 -83.58)"/><path class="cls-4" d="M1086.82,317.63a12.56,12.56,0,0,1,.59-1.91c2.23-5.16,47.39,6.85,47.39,6.85s2.57,20-1.76,22.1-35.87,8.65-48.36-2.88" transform="translate(-44.42 -83.58)"/><path class="cls-1" d="M1096,258.42s-10.18,23.28-10.18,29.1-1.46,32,5.09,37.1,18.92,10.92,29.1,9.46l10.19-1.45h0s3.63-1.46,10.91-12.37,7.45-16,7.45-16l9-31.39-28.35-25.62-34.27,8Z" transform="translate(-44.42 -83.58)"/><ellipse class="cls-5" cx="1065.69" cy="215.5" rx="4.96" ry="4.64"/><path class="cls-6" d="M1123.7,274s-5.61-6.56-7.21-2.88-13,30.83-9.13,33,9,5.32,9.77,0S1125.42,275.72,1123.7,274Z" transform="translate(-44.42 -83.58)"/><path class="cls-7" d="M1133.15,232.48s-2.57,8.49-7.85-2.88c0,0-8.17-6.25-6.25,3s-7.2,3.76-7.2,3.76-8.65-5.13-4.65,1.6-2.24,2.73-2.24,2.73-23.54-5-6.25,8.48c0,0-.32,2.89-11.53-.64s5.93,9,5.93,9a12.78,12.78,0,0,1-.24,8.33c-1.72,4.27.58-2.15,4.24-7.05s3.37-.64,7.05-.64,6.89-.8,9,3.68,7.1-4.32,8.43-2.24.38,4.33,9.34,3.2c0,0,3.53,6.57,13.62,6.25s1.92,4.48,2.56,7.85.32,3.68,4.48,5c0,0,1.76,4.81-3.68,11.37,0,0-4.65,22.9,6.4,2.4,0,0,2.66-4.16,13.3-8.32,3.68-1.44-7.39-7.95-4.73-8.49,8.65-1.76.72-6.57.72-6.57s-3.33-2.58,3.53-7.36c5.28-3.69-4.65-7.13-4.65-7.13s-5.78.25-.8-5c3.44-3.61-10.09-4.41-12-5.53s-5-17-8.33-6.24S1138,228.63,1133.15,232.48Z" transform="translate(-44.42 -83.58)"/><path class="cls-2" d="M1302.63,393.52s11.21,28.34,9.61,40.83l-14.09-10.89Z" transform="translate(-44.42 -83.58)"/><polygon class="cls-8" points="1127.22 246.36 1049.93 397.85 1066.27 418.03 1090.77 407.46 1127.22 246.36"/><path class="cls-9" d="M1207.19,323.27l-35.55,6.67s-56.85,147.33-64.3,148.93,27.14,24,37.71,27.23,98.65,20.49,98.65,20.49,19.54,6.16,21.46-16.78,26.92-154.57,26.92-154.57-32-23.7-49.66-35.23S1207.19,323.27,1207.19,323.27Z" transform="translate(-44.42 -83.58)"/><path class="cls-10" d="M1201.23,318.17l-6.54-6.88s-10.49,16.15-10.15-3.2c0,0-17,21.09-1.38-20.64,0,0-21.51,10.59-3.27-5.21l29.89-36.43,2.1,6.25-14.81,39.44Z" transform="translate(-44.42 -83.58)"/><path class="cls-11" d="M1212,323.27l-1.92,12.26s4.8,16.19,38.11,2.74l14.1-29.86Z" transform="translate(-44.42 -83.58)"/><path class="cls-12" d="M1253.14,329.81s-12.37,8.73-26.62,4.78-26.14-14-27.47-22.49-9.78-16.58,10.4-57.19,71.88,23.1,71.88,23.1l-12.79,40.76Z" transform="translate(-44.42 -83.58)"/><path class="cls-13" d="M1226.42,277.24s9.43-8.68,5.69,2.68-10.67,18.87-15.12,20-7.7-4.11-1.21-11S1226.42,277.24,1226.42,277.24Z" transform="translate(-44.42 -83.58)"/><path class="cls-14" d="M1292.08,355.24s19.84,30.43,12.79,72.39-21.77,71.49-39.71,82.18-47.63,16.14-50.88-9.8S1292.08,355.24,1292.08,355.24Z" transform="translate(-44.42 -83.58)"/><path class="cls-1" d="M1301.29,461.46c3.27-2.09,10.85-8.79,11.21-26.18.46-22.18-7.63-6.69-7.63-6.69a29.18,29.18,0,0,1-13.47,17s-6.27,6.62,1.9,4.63-5.42,6.2-5.42,6.2-.67,2.52,4.61.65,5.66-.95,4.54-.07c-1.75,1.38-8.26,3.34-8.39,4.51-.18,1.74,1.9,1.9,8.79-1.78,0,0-9.62,6.64-1.9,4.14" transform="translate(-44.42 -83.58)"/><path class="cls-12" d="M1134.59,437.87s12-9.11,9.7-18.42c0,0,99.54,46.9,105.57,60.21s12.47,37.16-23.54,38.87c0,0-29-14.47-52.65-39S1137.21,439,1134.59,437.87Z" transform="translate(-44.42 -83.58)"/><path class="cls-12" d="M1150.26,426.15l-10.15-14.26s-9.95-11.51-5,1c0,0,1.07,4.42-6.72-1.09,0,0-26.91-13.91-4.94,4.08,0,0,2.12,3.57-4.32-.19s-13.5-3.75-.24,5.23c0,0,6.45,4.53-5.68-.33,0,0-9.71-1.2.3,4.37,0,0,10,5.09-.79,1.17s-7.6,1.51,2.07,5.78,24.59,7.6,24.59,7.6Z" transform="translate(-44.42 -83.58)"/><path class="cls-14" d="M1251.41,331.43s12.17,10.68,8.88,14-40.7,16.43-62.39-4.8l7.88-14.58,5.33,2.81-.63,4s-2,16.55,37.7,5.34Z" transform="translate(-44.42 -83.58)"/><path class="cls-15" d="M1204.43,236s15-10.58,31.28-8.85,45.67,13.69,51,30.32,6.47,72.22,4.21,86.13-3.57-3.59-3.57-3.59-2,14.29-12.85-2.71c0,0-3.61,15.94-7.46-3.67,0,0-6.15,10.26-5.34-4.57,0,0-11.09,7.06-6-.8s6-10.45,6-10.45-26.54,29.77-2.71-9.13c0,0,7.19-21.15,10.85-28.61,0,0-7.91,5.75-2.7-4.71,0,0-6.39,6.33-5.36-1,0,0-11.47.45-10.32-4.88,0,0-9.44,6.06-9.62-1.79,0,0-11.43.16-6.62-6.44,0,0-22.87,3.9-8.66-4.21,0,0-18.92,3.65-10.5-4.88,0,0-19.34,9.44-7.95-2.78,0,0-19,11.13-12.31,4.88s18.89-19.3,18.89-19.3S1210,241,1204.43,236Z" transform="translate(-44.42 -83.58)"/><path class="cls-13" d="M1273.72,299.67l-7.63,14.76S1282.4,307.5,1273.72,299.67Z" transform="translate(-44.42 -83.58)"/><line class="cls-16" x1="1191.66" y1="257.57" x2="1194.22" y2="269.42"/><line class="cls-16" x1="1199.67" y1="255.01" x2="1205.43" y2="266.22"/><line class="cls-16" x1="1182.37" y1="258.53" x2="1181.73" y2="267.18"/><line class="cls-16" x1="1171.48" y1="258.53" x2="1168.28" y2="266.54"/><line class="cls-16" x1="1167.32" y1="251.8" x2="1156.75" y2="257.89"/><line class="cls-16" x1="1156.43" y1="246.36" x2="1164.75" y2="244.44"/><line class="cls-16" x1="1215.87" y1="261.9" x2="1206.07" y2="252.12"/></g><g id="schloss_hinten" data-name="schloss hinten"><path class="cls-17" d="M564.84,160.89s5.11-72.39,86-75.8,185.7,0,185.7,0S913.62,80,917.22,160s5.16,203.42,5.16,203.42l-26.69,6.95-7.23-212.92s-6.1-45.5-49.39-44.29c-51.93,1.46-185.66,0-185.66,0s-46.38-7-65.12,58.62L564.84,164Z" transform="translate(-44.42 -83.58)"/><path class="cls-18" d="M921,357.39c-2.22-.22-386.84-22.77-391.9,8.74C523.93,398.19,953.42,393.08,921,357.39Z" transform="translate(-44.42 -83.58)"/></g><g id="Daten"><polygon class="cls-19" points="699.68 51.53 898.34 166.34 824.04 305.91 596.31 285.22 699.68 51.53"/><polygon class="cls-20" points="620.08 128.98 832.06 194.84 790.64 300.94 563.12 261.26 620.08 128.98"/><polygon class="cls-21" points="829.69 163.61 869.26 182.5 846.04 231.01 809.5 218.56 829.69 163.61"/><polygon class="cls-21" points="809.5 154.9 789.99 207.79 737.63 189.68 764.43 134.85 809.5 154.9"/><polygon class="cls-21" points="834.43 259.87 794.77 248.18 773.97 283.99 829.69 296.24 818.91 283.99 834.43 259.87"/><polygon class="cls-21" points="712.21 163.61 737.63 117.35 697.21 94.61 671.01 153.27 712.21 163.61"/><polygon class="cls-19" points="622.15 103.22 829.69 187.2 777.2 312.37 536.55 301.07 622.15 103.22"/><polygon class="cls-20" points="565.77 164.9 779.77 223.85 741.82 331.24 513.13 298.96 565.77 164.9"/><polygon class="cls-19" points="563.2 154.9 773.97 219.5 736.02 326.89 510.56 288.95 563.2 154.9"/><path class="cls-17" d="M741.63,135.11" transform="translate(-44.42 -83.58)"/><rect class="cls-17" x="725.01" y="191.87" width="229.2" height="17.77" transform="translate(1421.94 710.85) rotate(-150)"/><rect class="cls-17" x="653.57" y="227.96" width="225.12" height="17.77" transform="translate(1344.26 658.72) rotate(-158.11)"/><polygon class="cls-22" points="747.32 245.97 737.63 288.95 704.32 281.15 715.02 238.08 747.32 245.97"/><polygon class="cls-22" points="695.64 233.23 685.94 276.58 652.84 269.57 663.34 225.16 695.64 233.23"/><polygon class="cls-22" points="646.38 220.31 634.44 264.92 606.4 257.45 614.88 213.04 646.38 220.31"/><polygon class="cls-22" points="597.26 208.3 585.03 250.23 556.51 240.26 569 199.49 597.26 208.3"/><rect class="cls-23" x="593.17" y="334.23" width="37.68" height="7.24" transform="translate(1056.55 753.9) rotate(-163.28)"/><rect class="cls-23" x="641.08" y="349.02" width="37.68" height="11.57" transform="translate(1145.46 800.87) rotate(-163.28)"/><rect class="cls-23" x="689.34" y="362.03" width="37.68" height="7.24" transform="translate(1236.84 835.98) rotate(-163.28)"/><polygon class="cls-22" points="575.93 270.35 563.7 312.29 535.18 302.31 547.67 261.54 575.93 270.35"/><rect class="cls-17" x="598.58" y="269.36" width="222.44" height="17.77" transform="translate(1265.14 665.33) rotate(-163.28)"/><line class="cls-24" x1="739.62" y1="252.59" x2="719.62" y2="247.66"/><line class="cls-24" x1="731.78" y1="262.18" x2="717.58" y2="258.08"/><line class="cls-24" x1="735.91" y1="271.23" x2="714.06" y2="267.08"/><line class="cls-25" x1="712.95" y1="273.27" x2="733.32" y2="276.71"/><line class="cls-24" x1="685.86" y1="237.71" x2="669.1" y2="233.95"/><line class="cls-24" x1="686.84" y1="244.86" x2="665.38" y2="239.86"/><line class="cls-24" x1="681.81" y1="250.01" x2="665.7" y2="247.24"/><line class="cls-24" x1="671.99" y1="254.59" x2="663.86" y2="252.73"/><line class="cls-24" x1="639.81" y1="225.16" x2="620.18" y2="219.86"/><line class="cls-24" x1="635.55" y1="230.78" x2="619.07" y2="226.89"/><line class="cls-24" x1="636.29" y1="237.11" x2="618.52" y2="233.56"/><line class="cls-24" x1="633.33" y1="242.36" x2="616.76" y2="238.98"/><line class="cls-24" x1="627.4" y1="256.52" x2="613.7" y2="252.82"/><line class="cls-24" x1="591.85" y1="213.04" x2="572.41" y2="207.79"/><line class="cls-24" x1="587.99" y1="219.57" x2="573.37" y2="214.75"/><line class="cls-24" x1="587.15" y1="225.43" x2="568.96" y2="220.51"/><line class="cls-24" x1="571.73" y1="234.85" x2="565.43" y2="232.97"/><line class="cls-24" x1="580.93" y1="243.93" x2="563.82" y2="238.04"/><line class="cls-24" x1="551.11" y1="268.19" x2="568.89" y2="273.27"/><line class="cls-26" x1="550.37" y1="274.99" x2="565.74" y2="277.53"/><text class="cls-27" transform="translate(704.55 69.02) rotate(30.24)">Photos</text><text class="cls-27" transform="translate(628.13 119.09) rotate(20.85)">Passwords</text><text class="cls-27" transform="translate(571.32 169.87) rotate(16.27)">Recipes</text></g><g id="schloss"><path class="cls-9" d="M528.22,366.13s87.81,9.41,181,6.83c103.5-2.85,213,1.45,213.43-12.87.76-27.17,0,212.33,0,212.33s2.3,48.35-59.36,51.33-279.64,0-279.64,0-49.44,3-50.29-57.49S528.22,366.13,528.22,366.13Z" transform="translate(-44.42 -83.58)"/><path class="cls-28" d="M528.22,366.13l.59,19.59s364,18.38,394.15-2.15l-.34-23.48s-5,9.43-190.86,12.36C634.68,374,535.17,368.66,528.22,366.13Z" transform="translate(-44.42 -83.58)"/><ellipse class="cls-17" cx="612.4" cy="395.82" rx="8.52" ry="11.07"/><polygon class="cls-17" points="609.33 404.34 603.89 432.58 624.33 432.44 614.11 399.18 612.4 404.34 609.33 404.34"/><circle class="cls-17" cx="681.81" cy="390.29" r="11.5"/><polygon class="cls-17" points="677.61 396.63 670.31 433.54 696.71 433.29 683.51 396.63 677.61 396.63"/><ellipse class="cls-17" cx="749.94" cy="391.56" rx="10.65" ry="12.77"/><polygon class="cls-17" points="746.96 396.67 739.3 430.02 760.59 430.02 753.18 396.67 746.96 396.67"/><ellipse class="cls-28" cx="609" cy="395.52" rx="8.52" ry="11.07"/><polygon class="cls-28" points="605.93 404.04 600.48 432.28 620.92 432.14 610.7 398.88 609 404.04 605.93 404.04"/><circle class="cls-28" cx="679.26" cy="390.16" r="11.5"/><polygon class="cls-28" points="675.05 396.51 667.76 433.42 694.16 433.17 680.96 396.51 675.05 396.51"/><ellipse class="cls-28" cx="745.67" cy="391.5" rx="10.65" ry="12.77"/><polygon class="cls-28" points="742.69 396.61 735.02 429.95 756.31 429.95 748.91 396.61 742.69 396.61"/><path class="cls-29" d="M849.59,599.73s35.06-12.12,49.21-54.33c5.89-17.58,5.71-12.52,5.84,1.25C904.84,568.13,902.21,612.79,849.59,599.73Z" transform="translate(-44.42 -83.58)"/><path class="cls-30" d="M903.8,151.78c.88-36.8-24.54-45.49-41.9-50.8l11.46,8c12.66,7.85,21.55,19.8,24.06,26.35Z" transform="translate(-44.42 -83.58)"/><path class="cls-30" d="M564.84,164c.69-8.66,26.36-1.23,23.45,7.79C585.32,181,564.23,171.73,564.84,164Z" transform="translate(-44.42 -83.58)"/><line class="cls-31" x1="494.92" y1="93.98" x2="466.03" y2="111.18"/><line class="cls-31" x1="516.93" y1="107.05" x2="501.11" y2="134.56"/><line class="cls-31" x1="531.38" y1="124.93" x2="530.69" y2="155.2"/></g><g id="trustees"><path class="cls-9" d="M290.61,222.64,255,224.26l-23.5,15.07,44.89,67.91,55-24.47s-25.61-45.38-34.85-57.54S290.61,222.64,290.61,222.64Z" transform="translate(-44.42 -83.58)"/><path class="cls-11" d="M262.08,213.56s-2.75,14.43-1.29,16.37,18.8,15.24,25.44,12.48l5.84-22.85Z" transform="translate(-44.42 -83.58)"/><path class="cls-10" d="M252.2,235.28l2.75-11,7.29-.65-1.62,5s19.78,16.86,25.61,13.78l1.78-6.48s14.75,16.37-4.7,15.4C283.31,251.33,251.71,244,252.2,235.28Z" transform="translate(-44.42 -83.58)"/><ellipse class="cls-32" cx="325.75" cy="176.1" rx="17.99" ry="18.23"/><path class="cls-32" d="M378.61,244.84l32.58-27.71s4.21,1.62,3.24,3.56a82.81,82.81,0,0,1-5,7.3l3.72,3.56L411.51,233l-3.4-2.43,1.78,5.67-5.35-4.05,2.11,4.86-4.54-2.1-17.82,16.69Z" transform="translate(-44.42 -83.58)"/><path class="cls-15" d="M223.51,251.65s8.1-31.66,34.52-10c0,0,19.23,35.23,29.5,55.54l54.78-23.66,13,16.86-87.95,73.36s-16.26,5.89-16.26-1.73l-10.37-17.34-17.34-58.51S222.37,257.32,223.51,251.65Z" transform="translate(-44.42 -83.58)"/><path class="cls-12" d="M341.34,275.64l6.15-5.51,2.6-6s2.27-4.38,2.92.49,2.26,3.24,2.26,3.24l4.22-2.6.32-4.05s1.79-5.67,2.6-.32.48,3.89.48,3.89,1-11.35,2.27-.16l.65,4.21s1.3-14.91,2.43-1.46l-.16,3.73.65-3.08s2.91-2.11.64,4.05-12.15,12-12.15,12l-8.91,5.68Z" transform="translate(-44.42 -83.58)"/><path class="cls-12" d="M300.06,197.12s1.46,25.74-3.65,31.29-29.69-4.24-29.69-4.24l-1.17-6.58s-4.24,1.91-2.48-9.06,5.7-4.1,6.14-2.34,1-8.63,1-8.63l17.84-7.16Z" transform="translate(-44.42 -83.58)"/><path class="cls-13" d="M300.06,204.14s3.95,7.46,3.66,9.21-4.83,2.05-4.83,2.05S297.58,206.19,300.06,204.14Z" transform="translate(-44.42 -83.58)"/><path class="cls-33" d="M267.89,185.67s6.73-9.51,6.14-5.7,10.24-2.64,10.24-2.64,9.65-.58,1.61,3.07,11.4-1.16,11.4-1.16,14.63-.88,1.32,4.53c0,0-6.87,3.51,2.49,5,0,0,13.74,2,3.51,4.24,0,0,19.44,2.78.73,7,0,0-1.61,3.95-6,0s-1.31,1-1.31,1,1.31,4.54-4.39-1.61c0,0-2.78,1.32-7.46-2.34,0,0,3.95,5.85-7,2.64,0,0-2.48,5.11-7,2.77,0,0,3.22,2.05,1.17,7.9,0,0-1.46,9.65-3.21.44s-4.54-7.31-4.54-7.31-5.7,12.13-1,15.21,1,.29,1,.29l1.17,6.58-1.31,7.6s-2.34,7-2.34.15-2.49,2.19-2.49,2.19-4.53,6.44-3.36-.44c0,0,3.22-5.26,1.9-7l-2.19,3.66s-3.81,5.56-1-2,2-16.81,2-16.81l-2.19-7.17s-7.31,3.51-3.22-1.9,3.22-9.94,3.22-9.94-9.36-1.32-1.17-3.8a71.9,71.9,0,0,0,14.33-6.15Z" transform="translate(-44.42 -83.58)"/><path class="cls-34" d="M257.32,211.13s2.66-7.57,3.3,0,1.73-1.73,1.73-1.73.71,9.7,3.2,8.19c3-1.82-.23,23.2-2.66,18.66,0,0,1.24-8.56-1.54-2.27-3.55,8-7,3.08-2.67-3.62,0,0,.54-2.44-2,2.08s-2.08-1.22-.35-5.54S258,212.16,258,212.16Z" transform="translate(-44.42 -83.58)"/><line class="cls-35" x1="225.61" y1="152.57" x2="221.93" y2="162.18"/><line class="cls-35" x1="231.87" y1="156.57" x2="229.28" y2="165.1"/><line class="cls-35" x1="237.17" y1="158.29" x2="235.76" y2="166.83"/><line class="cls-35" x1="241.81" y1="158.83" x2="243.43" y2="167.69"/><line class="cls-35" x1="243" y1="155.16" x2="248.41" y2="161.1"/><line class="cls-35" x1="219.02" y1="153" x2="215.77" y2="159.27"/><line class="cls-35" x1="212.21" y1="152.03" x2="210.26" y2="155.05"/><line class="cls-35" x1="212.1" y1="141.76" x2="209.29" y2="146.19"/><path class="cls-1" d="M138.42,323.77s-3.4,30.47-14.59,45.87-17,14.91-17,14.91-8.76,1.62-1.79,2.59-2.91,4.38-2.43,5.35,5.67-.65,5.67-.65-16.53,6.81.81,2.43c0,0-13.93,8.92.81,2.27,0,0-9.07,6,1.14,1s16-8.59,16-8.59,27.23-13.78,31.12-31.12-13.13-33.88-13.13-33.88Z" transform="translate(-44.42 -83.58)"/><polygon class="cls-14" points="99.19 205.84 88.33 238.25 113.13 248.3 99.19 205.84"/><path class="cls-2" d="M143.61,289.41l41.16-18.47,22.69,1.62,31.77,16.2-11.35,92.39s-59,14.91-65.8,8.42S143.61,289.41,143.61,289.41Z" transform="translate(-44.42 -83.58)"/><path class="cls-4" d="M207.14,280.66s-10,11.67-21.39,1.95l-.65-7.78,20.74-1.3Z" transform="translate(-44.42 -83.58)"/><ellipse class="cls-36" cx="92.19" cy="259.42" rx="12.51" ry="11.25"/><path class="cls-36" d="M125.45,338.68l-22.36-32.74s1.62-4.21,3.08-2.75l1.46,1.46,5.67-3.89,2.11,2.92-5.19,3.56,6.64-1.62-4.7,3.73,5-1.46,2.1,2.11-4.7,2.91,2.27.17v1.78l14.59,19.61Z" transform="translate(-44.42 -83.58)"/><path class="cls-1" d="M203.9,350.35s-55.11-2.59-55.11-5.18-6.16-11-4.21-1.95c0,0,.48,3.24-2.43.33s-8.43-9.41-3.24,1.45c0,0-10-12.15-1.62,1.46,0,0-10.7-11.18-1.79,1.3,0,0-7.29-5.35-.65,2.43s12,5.67,12,5.67,52.19,25.29,73.25,29c0,0,10.05,4.54,14.27,3.41s10.37-9.4,12.48-37.12-2.76-27.87-2.76-27.87l-32.58,3.4S204.55,343.55,203.9,350.35Z" transform="translate(-44.42 -83.58)"/><path class="cls-14" d="M215.57,294.92s22-22,30.79,3.24c0,0,2.92,22.69,5.19,35.34l-46.36-1.95S212.65,302.05,215.57,294.92Z" transform="translate(-44.42 -83.58)"/><path class="cls-1" d="M176.51,250.84s3.56,27.07,10.21,28.69,15.88,5.34,18.31-1.79,2.6-9.4,2.6-9.4,6.48,2.6,6.64-8.1-7.94-3.24-7.94-3.24l2.92-7.94-5.68-11-21.39,1.13Z" transform="translate(-44.42 -83.58)"/><path class="cls-7" d="M186.88,269.15s6.32-2.75,9.24.33-1,2.75-1,2.75h-8.27S181.53,272.72,186.88,269.15Z" transform="translate(-44.42 -83.58)"/><path class="cls-6" d="M186.39,255.22s3.08-5.52,5.84,0l-.16,12.64s-3.89,3.24-6.32-.49S186.39,255.22,186.39,255.22Z" transform="translate(-44.42 -83.58)"/><path class="cls-7" d="M177.64,258.29s-6.32-.64-5.35-5.67.49-7.78,4.7-6.81c0,0,.81-.81-.81-3.4s-1.62-5.35,1.3-5.35c0,0-2.11-8.59,3.4-6.16,0,0,4.38-3.89,3.89,2.27,0,0,3.57,3.24,4.54-4.54,0,0,1.14-6.32,5.51-2.59,0,0,2.11,4.22,6.32,2,0,0,9.73-4.22,7,5.51,0,0,6,1,1,6.48,0,0,13.78,7.46,2.92,8.91,0,0,12.16,4.38,2.27,8.43,0,0-2.59,4.22-3.73,1.3,0,0-4.37,14.26-4-.49,0,0-6.16-4.37-1.62-6.32,0,0,5.67-4.37-2.76-7.13,0,0-4.37,1-4.37-3.4,0,0-1.3-3.57-5.35,1.29,0,0-2.27,3.24-5-1.13s-3.57,2.75-3.57,2.75-1.78,6.49-3.57,1.95c0,0,0,5.35-2.91,5.83Z" transform="translate(-44.42 -83.58)"/><polygon class="cls-37" points="114.75 350.41 111.18 367.26 128.04 359.81 128.04 352.68 114.75 350.41"/><path class="cls-38" d="M166,439.82s-19.77-6.16-23-11.35c-2.36-3.77,3.85-21.94,7.42-31.57,1.34-3.62,2.3-6,2.3-6l15.24,1,23,32.42Z" transform="translate(-44.42 -83.58)"/><path class="cls-39" d="M135.5,411.62s6.81-15.24,15.89-16.54l-4.22,17.51S138.74,416.8,135.5,411.62Z" transform="translate(-44.42 -83.58)"/><path class="cls-9" d="M95.63,468s60.62-29.82,70.67-24.31S187,474.18,187,474.18s-13.29,21.07-30.79,25-64.51,11.67-64.51,11.67Z" transform="translate(-44.42 -83.58)"/><ellipse class="cls-36" cx="30.49" cy="339.36" rx="18.96" ry="19.45"/><polygon class="cls-36" points="28.36 321.88 9.89 276.34 5.83 278.12 8.27 284.12 1.62 286.87 2.11 288.82 8.75 286.39 9.56 289.14 0 293.36 1.78 297.41 10.7 293.84 7.46 297.41 13.13 297.73 3.08 303.57 12.97 303.08 20.42 324.8 27.71 321.56 28.36 321.88"/><path class="cls-38" d="M74.56,441.76s12.64,24,21.07,26.26-3.24,38.9-3.24,38.9-24-30.15-29.17-59c0,0-.22-2.59-3.14-6.91s-4.1-7.35-4.64-11.46,2.27,1.08,2.27,1.08-3.46-13.29,1.4-2.48c0,0-1.94-15.13,2.38-1.08,0,0,.86-19.34,3.35-.11,0,0,4.86,12.1,9.18,4.75,0,0,4.11-6.91,2.6,2.06C76.62,433.77,75.86,437.22,74.56,441.76Z" transform="translate(-44.42 -83.58)"/><path class="cls-40" d="M152.52,387.14s2.27-8.1,7.46-5.35c0,0,2.43-4.05,7-.48,0,0,6.33-6.16,13.29-.16,0,0,5.19-4.54,6.65,1.46,0,0,19.29,1.45,19.93,21.06,0,0,13.46,9.73,5.35,19.78,0,0-3.08,7.13,5.84,14.58s11,5.68,4.54,18c0,0,13.12,7.62,3.56,11.51,0,0,15.07,10.86-1,19s-23.83,25.45-23.83,25.45-2.75,12.32-17.18,5.67c0,0-2.59,10.54-13.61,9.4,0,0-8.27,1.14-5.35,8.27,0,0,4.54,2.92-.32,5.35,0,0-2.11,3.56.65,6,0,0-.65,6.32-3.73-1,0,0-4.86-2.75-1.95-7.45a11.21,11.21,0,0,0,0-8s-8.75-8.1,2.6-12.15c0,0,15.07-8.75,1.78-19.94,0,0-3.73,3.08-4.86-1.78,0,0-11.51,5.67-3.24-5,0,0-3.89-4.22,3.24-5.84,0,0,9.4-3.08,3.4-13.45,0,0-3.73-5.19,5.19-8.27,0,0,3.72-4.05-.81-3.4s-10.7,5.51-3.41-10c0,0,5.84-5.67,2.76-7.94s-1.62-6.48,1.62-9.4,3.4-8.91,6.32-7.46,2.27-11.34-2.27-12.8-6,8.1-6.48-5.19c0,0,1.62-4.05-2.11-5.34s-1.3-7.14-1.3-7.14a5.71,5.71,0,0,1-7.13-3.07S142.31,395.9,152.52,387.14Z" transform="translate(-44.42 -83.58)"/><path class="cls-14" d="M275.86,335.44l73.58-.65s8.1,37.93,12.64,49.27,12,25.29,9.08,34.69-63.54,1.94-63.54,1.94l-25.93-13.94Z" transform="translate(-44.42 -83.58)"/><path class="cls-38" d="M359.81,341.28s-12.32-16.86-15.23,4.53,23,57.7,23,57.7l11.67-9.72S364.67,357.16,359.81,341.28Z" transform="translate(-44.42 -83.58)"/><ellipse class="cls-32" cx="312.69" cy="337.44" rx="22.12" ry="20.66"/><path class="cls-32" d="M365.16,404.49l29-30.64-2.75-2.75,1-2.11,4.38,2.59-2.6-4.05,2.6-2.75,3.4,4.53,1.13-1.13L393.2,358l3.73-2.43,7.13,7.78-4.7-9.08,7.62,6,2.91-4.05s6.32.65,6.32,3.08-17,23.5-17,23.5l-24.64,28Z" transform="translate(-44.42 -83.58)"/><path class="cls-38" d="M257.06,354.73s18.47-45.71,32.57,2.43c0,0,1.95,39.38-1.45,46.68,0,0,31.11,9.23,41.81,14.1s14.1-3.89,14.1-3.89,6.81-4.38,2.43,4.37S354.3,416,354.3,416s8.32-5.35,1.08,3.95.65,1.51.65,1.51,9.83-9.19,1.41,3.13,2.05-1.29,2.05-1.29,6.16-8.65,1.4,2.8l-1.51,3.35,2.92-4.75s3.13-5.4,1.29,1-5.07,8.21-8.64,11.13-17.07.33-20.2-.32-74.34.11-76.94-2.27S248.31,387.63,257.06,354.73Z" transform="translate(-44.42 -83.58)"/><path class="cls-37" d="M309.25,329l-1.63,21.72s20.75,14.58,27.88,1,7.13-24.31,7.13-24.31Z" transform="translate(-44.42 -83.58)"/><path class="cls-38" d="M341.66,297.84,308,302.38l-.65,23s.32,6.49,6.48,13.62,12.32,13.61,23,1.29,9.4-21.71,9.4-21.71Z" transform="translate(-44.42 -83.58)"/><path class="cls-39" d="M329,311.13l-3.24,13.61s-.33,14.27,4.86,1.63S329,311.13,329,311.13Z" transform="translate(-44.42 -83.58)"/><path class="cls-7" d="M338.42,300.43s-12,12-10.05,3.57c0,0-5.19,8.43-13.61,9.08s-3.25,34-3.25,34,4.54,7.46,4.22,13,1.94,15.88-3.89,6.8c0,0-.65,22.37-6.48,3.89,0,0-6.81,36.31-7.14,1.3,0,0,0-6.48-3.56-17.18,0,0-5.51-2.27-2.92-11,0,0-6.48-19.13-1.62-29.82S306,288.12,315.4,289.74c0,0,.65-5.84,15.56-2.92,0,0,6.16,1.62,8.43,3.57s6.48.32,8.43,5.83,3.24,16.53,1.3,25.61.64,24-13.62,29.82c0,0,5.19-10.7,7.13-17.51s1.62-2.91-1-15.55c0,0,3.24-1.95-.65-9.73C341,308.86,335.18,306.59,338.42,300.43Z" transform="translate(-44.42 -83.58)"/><path class="cls-14" d="M95.63,468s2,21.44-4.86,43a74.55,74.55,0,0,0,9.72-.49c6.81-.65,10.05-42.46,2.6-46.35Z" transform="translate(-44.42 -83.58)"/><path class="cls-41" d="M268.24,456.83s-13.13,0-49.11,25.29,41.33,77.31,41.33,77.31l41.82-1,41.33-18s1.45-78.28-20.43-81.19S268.24,456.83,268.24,456.83Z" transform="translate(-44.42 -83.58)"/><path class="cls-10" d="M250.74,501.57s-19.45-50.57-47.65-1c0,0-9.73,45.22-4.38,53.49s41.82,23.82,55.92,26.74,22.85,1.46,27.71,4.86l16.53-10.21S293,558,250.74,542.41C250.74,542.41,252.68,515.67,250.74,501.57Z" transform="translate(-44.42 -83.58)"/><path class="cls-15" d="M254.46,466.72l-8.75,5.19s8.75,21.72,28.53,24.31l4.54-11.35Z" transform="translate(-44.42 -83.58)"/><path class="cls-15" d="M282.67,483.9l2.91,11s13.62-10.05,11.35-21.07S282.67,483.9,282.67,483.9Z" transform="translate(-44.42 -83.58)"/><path class="cls-10" d="M321.24,459.59s18.48,50.57,6.48,76.5c0,0-25.28,13.29-27.23,15.23s-8.75,3.89-14.26,6.81l6.48,12,15.56-1.62s46.68-1,63.21-16.53C371.48,552,362.41,462.83,321.24,459.59Z" transform="translate(-44.42 -83.58)"/><path class="cls-15" d="M267.75,582.44s9.73-13.94,21.07-19.77c0,0,9.4,10.37,10.05,12.8s-16.53,10.21-16.53,10.21Z" transform="translate(-44.42 -83.58)"/><path class="cls-15" d="M300.49,551.32s7.78,11,7.78,17.18l-15.56,1.62-9.4-12Z" transform="translate(-44.42 -83.58)"/><path class="cls-1" d="M248.79,449.06l7.78,25.77s3.41,10.69,18.48,10.69,25.28-7.78,26.25-13.13,3.41-10.69-5.83-41.32-45.71,6.32-45.71,6.32Z" transform="translate(-44.42 -83.58)"/><path class="cls-1" d="M266.13,563.64s-10,4.54,1.3,2c0,0-10.05,6.8,2.27,3.56,0,0-7.46,7.13,1.3,2.27,0,0-9.08,7.13,1,2.59,0,0,3.24,1.62,12.32-1.94l8.42-2-6.48-12-7.45,3.24S274.24,559.1,266.13,563.64Z" transform="translate(-44.42 -83.58)"/><ellipse class="cls-32" cx="261.4" cy="523.1" rx="21.39" ry="20.91"/><path class="cls-32" d="M322.21,597.35l62.24,2.43s5.35,2.43,2.43,6.32h-3.73l-.16,9.73-5.19-.49v-7.61l-5.83.48v6.16l-3.08-.16-.16-6.81-2,.49.16,6-1.94.17-.49-6.16-39.06,1.29Z" transform="translate(-44.42 -83.58)"/><path class="cls-1" d="M284.29,584.06s7.45,8.11,8.42,9.73a28.1,28.1,0,0,1,2,5.51s2.59,12,4.86-1.3c0,0-1.62,11.67,2.92,0,0,0-2.92,10.7,2.59,0,0,0-2.59,11.35,3.24-.65,0,0,2.27-7.45,0-12.31s-6.8-7.78-9.4-9.57S284.29,584.06,284.29,584.06Z" transform="translate(-44.42 -83.58)"/><path class="cls-1" d="M248.79,449.06s-6.32-3.08-5,6.32,2.59,13.29,10,9.4S248.79,449.06,248.79,449.06Z" transform="translate(-44.42 -83.58)"/><path class="cls-6" d="M280.72,445.33s2.59-7.78,7.46-1.3c0,0,4.53,18.15,3.56,19.45s-8.1,7.46-11.34.32Z" transform="translate(-44.42 -83.58)"/><path class="cls-2" d="M266.46,432.69s11.67,8.1,17.83.64c0,0,9.07,5.84,8.1-1.94,0,0,5.83,3.24,3.89-2.92,0,0,.49-6.64-4.7-5.51,0,0-2.76-6.32-8.91-4.37,0,0-5.84-5-7.95.64,0,0-.48-2.59-6.48-1.29,0,0-2.92-6.32-5.83,1.78,0,0-3.89.32-3.41,3.89,0,0-2.1-6.32-6.16,3.57,0,0-3.72,1.13-2.1,3.56,0,0-7.46-5.35-3.73,3.89,0,0-3.08,3.24-.49,13l2.27,1.46s1.46,11.5,2.27,11,1.14-2.76,1.14-2.76,1.62,8.43,2.75-1.13c0,0,.49-5.84,1.14-6.16s2.91-1.62,2.26-11.67c0,0-.32-3.24,2.27-2.76S263.22,437.87,266.46,432.69Z" transform="translate(-44.42 -83.58)"/><ellipse class="cls-22" cx="236.35" cy="421.66" rx="1.52" ry="1.65"/><ellipse class="cls-22" cx="236.55" cy="432.83" rx="1.52" ry="1.65"/><ellipse class="cls-22" cx="237.14" cy="446.78" rx="1.52" ry="1.65"/><ellipse class="cls-22" cx="237.69" cy="459.81" rx="1.52" ry="1.65"/><line class="cls-42" x1="103.84" y1="239.98" x2="89.79" y2="234.79"/><line class="cls-42" x1="205.93" y1="244.97" x2="161.43" y2="244.25"/></g><g id="pfeile_und_arme" data-name="pfeile und arme"><ellipse class="cls-36" cx="621.53" cy="461.85" rx="15.7" ry="15.49" transform="translate(-171.01 178.47) rotate(-21.66)"/><path class="cls-36" d="M664.62,484.16c0-.1.13-.39.17-.49.32-.72.16-1.56.52-2.32a18.58,18.58,0,0,0,0-2l-29.26-15.5-3.65,6.7,19,9-.24,4.3,3.22-3.23-1.55,5.57,4-3.23-.87,3.49,1.69.84,1.67-4.12a42.92,42.92,0,0,0,4.89,1.43C664.43,484.47,664.45,484.3,664.62,484.16Z" transform="translate(-44.42 -83.58)"/><ellipse class="cls-36" cx="638.83" cy="474.02" rx="19.05" ry="17.79"/><path class="cls-36" d="M690.18,543.36l25-26.38-2.37-2.37.84-1.81,3.76,2.23-2.23-3.49,2.23-2.37,2.93,3.91,1-1-7-8.79,3.21-2.1,6.14,6.7-4-7.81,6.56,5.16,2.51-3.49s5.44.56,5.44,2.65-14.65,20.24-14.65,20.24L698.27,548.8Z" transform="translate(-44.42 -83.58)"/><ellipse class="cls-36" cx="818.92" cy="526.51" rx="15.95" ry="16.32" transform="translate(-193.08 335.16) rotate(-26.38)"/><path class="cls-36" d="M807,518.47l-19.44-43.36s-.15-4.48,3.5-3.8l1.26,2.54,6.7-3.18,1.43,3.71L795.23,477l2.31,3.82,4.21-2.08.93,2.15-4.59,2.42,1,1.17,4-2.15.77,1.28-4,2.42L814,512.24Z" transform="translate(-44.42 -83.58)"/><path class="cls-43" d="M976.86,217.4l1.77,2.31,2.32-1.77,3.54,4.64.59-.45L986.5,221c.26-.2.43-.17.64.1q1.47,2,3,3.88l.33.42,2.31-1.76,3.54,4.64,4.56-3.48c-.46-.6-.92-1.19-1.37-1.79s-.39-.53.13-.94l1.81-1.38c-.46-.59-.91-1.16-1.33-1.74s-.51-.5.15-1,1.1-.84,1.73-1.32c-.38-.51-.73-1-1.1-1.44-.68-.88-.69-.88.2-1.55.48-.37,1-.73,1.47-1.09a.84.84,0,0,1,.14,0L1033,252.19c-.76.58-1.5,1.16-2.26,1.71-.06,0-.29,0-.36-.13-.46-.57-.91-1.14-1.34-1.72-.2-.26-.35-.27-.6-.07-.53.43-1.09.82-1.63,1.24-.26.22-.42.2-.62-.08-.48-.66-1-1.29-1.5-2l-1.61,1.24c-.73.57-.73.57-1.28-.16-.39-.53-.8-1.06-1.23-1.62-.63.48-1.2.93-1.78,1.35s-.56.41-1-.12-.89-1.17-1.37-1.8c-.62.47-1.21.94-1.81,1.38s-.52.38-.91-.13l-1.38-1.8-2.31,1.77-1.78-2.33-2.34,1.78-1.78-2.33-2.33,1.78-1.78-2.32-2.33,1.78-1.78-2.33-2.33,1.77-1.78-2.32-1.38,1.05c-1,.73-1,.73-1.69-.22l-1-1.36-1.54,1.17c-.93.71-.75.65-1.41-.17-.32-.41-.61-.85-1-1.24s-.26-.49.09-.75c2.5-1.9,5-3.81,7.47-5.72l1.42-1.08-3.47-4.54L987,235.63,983.42,231l-2.34,1.79-3.55-4.65L976,229.31c-.76.59-.76.59-1.34-.18l-2.69-3.54c-.11-.15-.2-.31-.32-.5l2.27-1.73L972.09,221ZM1000.47,229l1.79,2.35-2.11,1.62c-.24.18-.39.12-.56-.12-.76-1-1.53-2-2.29-3l-1-1.34-2.35,1.79-3.56-4.67-2.32,1.77-3.53-4.62-.58.44-1.39,1.06c-.26.2-.44.17-.64-.1-.62-.84-1.27-1.66-1.91-2.49l-1.37-1.79-4.56,3.49,3.49,4.56,2.34-1.78,3.56,4.67,1.94-1.49c.26-.2.43-.17.63.1,1,1.3,2,2.58,3,3.87.09.13.19.25.33.43l2.29-1.75,5.4,7.07-6.93,5.29,1.71,2.24.44-.34c.48-.36,1-.71,1.42-1.09s.55-.28.82.11c.42.63.91,1.22,1.42,1.88l2.31-1.77,1.79,2.34,2.34-1.79,1.78,2.33,2.33-1.79,1.76,2.3,2-1.5c.25-.19.42-.21.63.09.47.67,1,1.31,1.53,2l2.35-1.8,1.78,2.33,2.36-1.79,1.74,2.29,1.84-1.41c.46-.34.46-.33.81.12l1.43,1.87,2.19-1.68a3.34,3.34,0,0,0-.23-.34c-1.63-2.16-3.26-4.34-4.91-6.5L1006,221.86c-.63-.82-1.25-1.64-1.88-2.45-.09-.1-.33-.22-.39-.18-.71.51-1.39,1-2.09,1.57.48.63.95,1.21,1.38,1.81s.33.52-.14.89-1.17.9-1.78,1.36c.51.67,1,1.31,1.48,1.93.22.29.22.48-.1.71C1001.8,228,1001.17,228.46,1000.47,229Z" transform="translate(-44.42 -83.58)"/><path class="cls-12" d="M601,461l7.07.74,5.33-1.81s4.1-1.08,1.38,2.14-.76,3.33-.76,3.33l4.09,1.18,2.77-2.13s4.65-2.14,1.71,1.47-2.2,2.56-2.2,2.56,7.8-5.94,1.41,1.35l-2.31,2.85s10.27-7.79,2.34.71l-2.48,2.05,2.34-1.37s3,.65-2.21,2.76-14.68-.82-14.68-.82L596,473.55Z" transform="translate(-44.42 -83.58)"/><path class="cls-38" d="M829.24,539.14,826,542.69l1.83-2.59c5.89-8.91-.73-2.6-.73-2.6s-11.09,9.79-2,.76-.67-2.88-.67-2.88-7.94,5.29-.31-1.39-.27-3.51-.27-3.51-12.1,7.47-7,.79-1.34-4.1-1.34-4.1a7.94,7.94,0,0,1-4.74,3.2,54.68,54.68,0,0,1-4.26,15.24c4.25,1.61,11.7,4.06,14.47,2.56,3.49-1.88,6.53-2.9,9.12-8S829.24,539.14,829.24,539.14Z" transform="translate(-44.42 -83.58)"/><path class="cls-1" d="M657.07,564.26s9.32-1.75,10.95-1.72a24.62,24.62,0,0,1,4.91,1.09s9.94,3.59,1.27-4.14c0,0,7.78,6.51,1.33-2.13,0,0,6.48,7,1.19-1.89,0,0,7.1,7.07,1-2.66,0,0-4.4-5.06-9-5.63s-8.79,1.42-11.27,2.5S657.07,564.26,657.07,564.26Z" transform="translate(-44.42 -83.58)"/><path class="cls-12" d="M601,461s-230.2-126.2-35.53-120.48l2.86-1,9.54-26.24s-259.08-5.25-53,125.48c0,0,69.61,36.22,79.89,37.2S601,461,601,461Z" transform="translate(-44.42 -83.58)"/><path class="cls-1" d="M657.46,549.68S439,545.16,496.73,626.75s153.64-1.91,153.64-1.91l-37.7-.48s-56.77,37.22-92.08.48,51.53-47.24,110.21-56.3l29.11-4.77Z" transform="translate(-44.42 -83.58)"/><path class="cls-38" d="M806.59,545.61s-25.83,99.53-56,94C731.49,636.15,729,624.69,729,624.69l-25.91.46s12.15,23.3,32.4,30.37c24,8.38,45.53,14,63.77-30.2,0,0,22.18-70.32,21.83-77.15S806.59,545.61,806.59,545.61Z" transform="translate(-44.42 -83.58)"/><path class="cls-44" d="M409.39,477.39l2.9-.29-.29-2.9,5.81-.59c0-.27-.06-.51-.08-.75-.06-.59-.11-1.18-.18-1.77,0-.33.08-.46.42-.49,1.62-.15,3.24-.33,4.86-.5l.53-.05-.29-2.89,5.81-.59-.58-5.7-2.25.22c-.64.06-.65.05-.72-.6s-.15-1.47-.23-2.26c-.75.08-1.47.17-2.18.22s-.69.17-.8-.67c-.08-.69-.14-1.38-.22-2.17l-1.81.18c-1.1.13-1.1.14-1.21-1-.06-.61-.11-1.22-.16-1.83,0,0,0-.08,0-.14l49.67-5c.09,1,.2,1.88.27,2.82,0,.07-.19.22-.31.24q-1.08.15-2.16.24c-.33,0-.42.15-.38.47.09.68.13,1.36.21,2,0,.33-.05.46-.4.49-.81.06-1.61.15-2.45.24.07.7.13,1.36.2,2,.1.92.11.92-.81,1l-2,.21c.08.78.16,1.5.22,2.22s.05.69-.62.77l-2.25.23c.08.77.16,1.52.23,2.26s0,.64-.59.71l-2.26.23.3,2.89-2.92.3.3,2.93-2.92.3.29,2.91-2.91.29.3,2.93-2.92.29.29,2.92-2.91.29c.06.62.12,1.17.17,1.73.12,1.2.12,1.2-1.07,1.32l-1.7.18c.06.66.13,1.29.19,1.92.11,1.17.16,1-.89,1.11-.52.06-1,.08-1.56.17s-.55,0-.59-.47c-.31-3.12-.64-6.24-1-9.36-.06-.57-.11-1.15-.18-1.77l-5.68.57.29,2.84-5.84.59.29,2.93-5.81.58c.07.7.13,1.35.2,2,.1,1,.1,1-.86,1l-4.42.43a5.8,5.8,0,0,1-.6,0l-.29-2.84-2.91.3Zm22.25-14,2.94-.3c.1.94.18,1.79.27,2.64,0,.31-.1.4-.39.42l-3.77.38-1.67.17.29,2.93-5.84.59.29,2.9-5.79.58c0,.28,0,.51.08.73.05.58.1,1.16.17,1.74,0,.33-.08.46-.42.49l-3.12.33-2.24.22.58,5.71,5.72-.58-.3-2.92,5.84-.59c-.08-.85-.16-1.64-.25-2.43,0-.33.08-.46.42-.49,1.62-.15,3.24-.33,4.85-.49l.54-.06-.29-2.87,8.85-.9.87,8.68,2.81-.28-.06-.56c-.06-.59-.11-1.19-.19-1.78-.06-.43.05-.62.53-.64.76,0,1.52-.14,2.34-.22l-.29-2.9,2.93-.3-.3-2.93,2.91-.29-.3-2.93,2.89-.29c-.09-.87-.17-1.66-.26-2.45,0-.32,0-.47.4-.49.82-.06,1.64-.16,2.53-.25l-.3-2.95,2.92-.29-.3-2.95,2.87-.29c-.08-.8-.16-1.55-.23-2.29-.05-.57-.05-.57.52-.63l2.34-.24-.28-2.75-.41,0-8.11.78-25.79,2.6c-1,.11-2.05.2-3.07.32-.13,0-.36.17-.36.24.06.86.16,1.72.25,2.6.79-.08,1.52-.17,2.26-.22s.61,0,.69.58.15,1.47.22,2.23c.84-.08,1.63-.15,2.42-.25.36,0,.52.06.55.45C431.46,461.69,431.55,462.48,431.64,463.36Z" transform="translate(-44.42 -83.58)"/></g></svg>