<svg xmlns="http://www.w3.org/2000/svg" viewBox="0 0 1006.9 648.78"><defs><style>.cls-1{fill:#a0616a;}.cls-2{fill:#4f4f4f;}.cls-3{fill:#0fb77f;}.cls-4{fill:#04d89d;}.cls-5{fill:#7f4e57;}.cls-6{fill:#b7929b;}.cls-7{fill:#161616;}.cls-8{fill:#52aaa7;}.cls-9{fill:#ccc;}.cls-10,.cls-12,.cls-20{fill:none;}.cls-10{stroke:#04d89d;}.cls-10,.cls-11,.cls-12,.cls-15,.cls-20,.cls-21,.cls-22{stroke-miterlimit:10;}.cls-10,.cls-11,.cls-12{stroke-width:2px;}.cls-11{fill:#cecece;stroke:#e0e0e0;}.cls-12{stroke:#777;}.cls-13{fill:#878799;}.cls-14{fill:#717084;}.cls-15,.cls-22,.cls-25{fill:#3f3d56;}.cls-15{stroke:#3f3d56;stroke-width:0.75px;}.cls-16{fill:#b7b7b7;}.cls-17{fill:#9b9b9b;}.cls-18{fill:#595959;}.cls-19,.cls-24{fill:#fff;}.cls-20,.cls-21,.cls-22{stroke:#565656;}.cls-21{fill:#4d4d4d;}.cls-23{fill:#ddd;}.cls-24{font-size:12px;font-family:Consolas;}.cls-26{fill:#9292a5;}.cls-27{fill:#525172;}.cls-28{fill:#5e5e5e;}.cls-29{fill:#8b8b9e;}</style></defs><g id="Person"><polygon class="cls-1" points="213.39 557.78 226.39 565.78 213.39 590.24 195.01 574.01 213.39 557.78"/><polyline class="cls-1" points="456.39 585.78 462.39 609.78 433.39 621.78 424.39 596.78 459.16 585.78"/><path class="cls-1" d="M650,212s10-28,16-31,35.24-23.1,12.6,0c-3,3.07-4.2,4.28-5.6,6-7.7,9.49,6,0,6,0s2,2-1,7-1.92,7.33-7,13.17S659,221,659,221l-9-7.72Z" transform="translate(-168.61 -63.22)"/><path class="cls-1" d="M650,387l16-11s7-8,4,2l-1.18,2L683,375.93s4,1,0,4.06l-4,3,7-1s9-2,0,5l-3,1.77s13-1.77,1,5.23-7,3-7,3-3,2-16,5-14-3-14-3Z" transform="translate(-168.61 -63.22)"/><path class="cls-2" d="M347,569l58.3-20.5L536,601l58,75s48-10,48-20-42-141-42-141l-89.28-56.9L283,429s-98,60-110,83,1,54,34,71,159,60,163,66,24-32,24-32l-10-11" transform="translate(-168.61 -63.22)"/><path class="cls-3" d="M538.42,277.35S580,293,584,289c0,0,58.69-82,62.34-83.5l21.33,11.75S648,345,642,349s-98,24-111,16S538.42,277.35,538.42,277.35Z" transform="translate(-168.61 -63.22)"/><path class="cls-4" d="M547,283s3.47,136.69-32.76,177.85C514.24,460.85,339,471,278,433c0,0,60.48-228.62,131.71-200.13a29,29,0,0,0,2.83,1.27C458,247,485,241,547,283Z" transform="translate(-168.61 -63.22)"/><path class="cls-5" d="M511.5,258.5l-3,12c-2.53.49-36.13,6.51-43-19-7-26,12.45-24.31,12.45-24.31Z" transform="translate(-168.61 -63.22)"/><path class="cls-1" d="M527.5,261.5c-12.66,4.22-36-2.43-44-13.21s-5-23.79-5-23.79l5-15s9,2,9,1,2-5,1-5,6,8,8,8,1-6,1-6l8,7s3.29,1,5.14,0a2.23,2.23,0,0,0,.86-3s6,8,4,2-1-6-1-6,11,16,12,9,2-8,1-7,6,9,11,8C543.5,217.5,533.5,259.5,527.5,261.5Z" transform="translate(-168.61 -63.22)"/><path class="cls-6" d="M522.5,217.5s-10,27-8,28,12,1,12,1a9.44,9.44,0,0,0,1-2c.14-4-.19-24.19-2-26C523.5,216.5,522.5,217.5,522.5,217.5Z" transform="translate(-168.61 -63.22)"/><path class="cls-7" d="M548.5,268.5c1,0,5,4,2-2s-3-5-3-5,23,2,15-4-8-5-10-8,0-40-3-44-25-24-31-24-1.32,1-9.16,0-11.84-5-16.84-4-9,6-9,6-9,1-12,5-7,8-11,6-3,5-3,5,0,2-2,1-11-3.05-11,8c0,3-10,0-10,0s-10-3-7,7-4,8-9,5-10.59,4.75-8.79,12.38,6.79,3.62,6.79,3.62,4,9,6,9,13-1,16,0,11,8,15,10,10,0,10,0,1-4,0-6,3.75,2,3.88-2-2.88-8,.12-8,5,7,7,0S478,226.82,478,226.82l5.55-16.32s11,5,10-4c0,0,11,16,9,2l8,7s7,2,6-3c0,0,7.52,11.08,2.76-3.46,0,0,13.49,22.48,13.36,2.47,0,0,5.88,10,10.88,7,0,0-10.9,39.16-14,42.08s-1,3.92-1,3.92,3,1,4,0-1,3,3,3,5-3,8-2A14.09,14.09,0,0,1,548.5,268.5Z" transform="translate(-168.61 -63.22)"/><path class="cls-3" d="M553,378S417,247,416.5,236.5c0,0-80.91-25-68.7,70.75C347.8,307.25,456,428,524,444c0,0,132-32,137-42l-5.71-18S602,378,553,378Z" transform="translate(-168.61 -63.22)"/><path class="cls-8" d="M399,627s17.09,4.46,13.54,10.23S383,693,383,693l-1-39.54,13-29.58Z" transform="translate(-168.61 -63.22)"/><polygon class="cls-9" points="223.39 634.78 250.39 579.78 243.94 574.01 214.39 629.78 223.39 634.78"/><polygon class="cls-9" points="434.39 638.78 498.39 619.78 502.43 629.28 438.39 648.78 434.39 638.78"/><path class="cls-8" d="M630.54,671.17l36.9,4.83-.44,7-64,19s-5-10-3-17Z" transform="translate(-168.61 -63.22)"/><line class="cls-10" x1="481.39" y1="320.22" x2="485.84" y2="341.75"/><line class="cls-10" x1="472.46" y1="148.22" x2="497.51" y2="163.95"/><path class="cls-3" d="M278,433l2.35-8.42c35.51,17.25,161.31,30.53,239.09,29.31l-5.2,7S320.71,470.5,278,433Z" transform="translate(-168.61 -63.22)"/><line class="cls-11" x1="461.02" y1="613.59" x2="467.81" y2="607.96"/><line class="cls-11" x1="468.41" y1="614.64" x2="475.2" y2="609.01"/><line class="cls-11" x1="212.55" y1="595.86" x2="219.33" y2="590.24"/><line class="cls-11" x1="212.55" y1="602.25" x2="219.33" y2="596.63"/><line class="cls-12" x1="219.55" y1="547.35" x2="192.27" y2="580.87"/><line class="cls-12" x1="418.91" y1="604.39" x2="472.07" y2="585.78"/></g><g id="Pfeil_und_Schloss_hinten" data-name="Pfeil und Schloss hinten"><path class="cls-13" d="M1173.16,384.73C1170.56,384.48,718.93,358,713,395,707,432.64,1211.27,426.64,1173.16,384.73Z" transform="translate(-168.61 -63.22)"/><path class="cls-14" d="M755,154s6-85,101-89,218,0,218,0,90.49-6,94.72,88,6,238.86,6,238.86L1143.48,400,1135,150s-7.17-53.43-58-52c-61,1.71-218,0-218,0s-54.47-8.18-76.47,68.82L755,157.68Z" transform="translate(-168.61 -63.22)"/><path class="cls-15" d="M696.07,154.54l1.7,2.23,2.23-1.71,3.41,4.46.57-.44c.46-.34.91-.69,1.36-1,.25-.19.42-.16.62.1.94,1.25,1.89,2.48,2.85,3.72.09.13.18.25.31.41l2.22-1.69,3.41,4.46,4.38-3.34L717.81,160c-.37-.5-.37-.51.13-.9l1.73-1.33c-.44-.57-.87-1.11-1.27-1.67s-.5-.48.14-1,1.06-.81,1.67-1.27l-1.06-1.39c-.66-.83-.67-.84.18-1.48.47-.36.94-.7,1.42-1.05a.68.68,0,0,1,.13,0L750,188c-.73.56-1.44,1.12-2.17,1.65-.06,0-.28,0-.35-.14q-.68-.8-1.29-1.65c-.19-.25-.33-.25-.57-.06-.51.41-1.06.78-1.57,1.19-.25.21-.41.19-.6-.08-.46-.63-.94-1.24-1.44-1.89l-1.54,1.19c-.71.55-.71.55-1.23-.16l-1.19-1.55c-.6.46-1.15.89-1.71,1.3s-.53.39-.94-.12-.86-1.12-1.32-1.73c-.59.46-1.16.9-1.74,1.33s-.5.36-.87-.12-.86-1.13-1.33-1.74l-2.22,1.7-1.71-2.24L724,186.58l-1.71-2.24L720,186.05l-1.71-2.24-2.24,1.72-1.71-2.24L712.11,185l-1.71-2.24-1.33,1c-.92.7-.92.7-1.62-.21l-1-1.31L705,183.38c-.9.68-.73.62-1.35-.17-.32-.39-.6-.81-.93-1.19s-.25-.47.08-.72c2.41-1.82,4.79-3.66,7.18-5.5l1.37-1L708,170.4l-2.18,1.66-3.43-4.48-2.25,1.71-3.4-4.46L695.2,166c-.73.57-.73.57-1.29-.17l-2.58-3.4-.31-.49,2.18-1.66L691.49,158Zm22.7,11.14,1.72,2.26-2,1.55c-.24.18-.38.12-.55-.1-.72-1-1.46-1.94-2.2-2.9l-1-1.29-2.25,1.72-3.43-4.49-2.23,1.7-3.39-4.44-.56.43c-.45.33-.9.67-1.33,1-.26.2-.42.17-.62-.09-.6-.8-1.22-1.59-1.83-2.39-.44-.56-.86-1.13-1.32-1.72l-4.38,3.35,3.35,4.39L699,163l3.43,4.49,1.86-1.43a.36.36,0,0,1,.61.09c.94,1.25,1.9,2.49,2.85,3.73l.32.41,2.21-1.68,5.18,6.79-6.66,5.09,1.64,2.15.43-.33c.46-.35.92-.68,1.36-1s.53-.27.79.11c.41.61.88,1.17,1.36,1.81l2.23-1.71,1.72,2.26,2.25-1.72,1.71,2.23,2.24-1.72,1.69,2.22c.67-.51,1.28-1,1.88-1.44.24-.19.4-.21.61.07.45.65.95,1.27,1.47,2l2.26-1.73,1.71,2.24,2.26-1.72,1.68,2.2c.62-.48,1.19-.92,1.77-1.35s.44-.33.78.11c.45.6.91,1.19,1.37,1.79l2.11-1.61-.22-.32c-1.57-2.08-3.14-4.17-4.72-6.25l-15.12-19.8c-.6-.79-1.2-1.58-1.81-2.36-.08-.1-.32-.21-.38-.17-.67.49-1.33,1-2,1.51.46.61.91,1.16,1.32,1.74s.32.5-.13.86l-1.71,1.31c.48.63.94,1.25,1.42,1.85.21.27.21.46-.09.68C720,164.69,719.45,165.17,718.77,165.68Z" transform="translate(-168.61 -63.22)"/></g><g id="Daten"><polygon class="cls-16" points="724.39 60.78 478.39 202.95 570.39 375.78 852.39 350.16 724.39 60.78"/><polygon class="cls-17" points="822.96 156.69 560.47 238.24 611.75 369.62 893.49 320.49 822.96 156.69"/><polygon class="cls-18" points="563.39 199.56 514.39 222.96 543.15 283.02 588.39 267.61 563.39 199.56"/><polygon class="cls-18" points="588.39 188.78 612.56 254.28 677.39 231.84 644.21 163.95 588.39 188.78"/><polygon class="cls-18" points="557.53 309.75 606.64 295.26 632.39 339.62 563.39 354.78 576.74 339.62 557.53 309.75"/><polygon class="cls-18" points="708.87 199.56 677.39 142.28 727.44 114.12 759.89 186.76 708.87 199.56"/><polygon class="cls-16" points="820.39 124.78 563.39 228.78 628.39 383.78 926.39 369.78 820.39 124.78"/><polygon class="cls-17" points="890.21 201.17 625.21 274.17 672.21 407.14 955.39 367.17 890.21 201.17"/><polygon class="cls-16" points="893.39 188.78 632.39 268.78 679.39 401.75 958.58 354.78 893.39 188.78"/><path class="cls-14" d="M896.05,124" transform="translate(-168.61 -63.22)"/><polygon class="cls-19" points="877.62 331.75 892.78 383.68 928.09 371.32 912.62 320.84 877.62 331.75"/><polygon class="cls-19" points="665.39 301.55 677.39 354.78 718.64 345.12 705.39 291.78 665.39 301.55"/><polygon class="cls-19" points="729.39 285.78 741.4 339.45 782.39 330.78 769.39 275.78 729.39 285.78"/><polygon class="cls-19" points="790.39 269.78 805.17 325.02 839.89 315.76 829.39 260.78 790.39 269.78"/><polygon class="cls-19" points="852.39 255.69 867.54 307.62 902.86 295.26 887.39 244.78 852.39 255.69"/><rect class="cls-14" x="797.74" y="290.24" width="275.45" height="22" transform="matrix(0.96, -0.29, 0.29, 0.96, -215.72, 218.61)"/><line class="cls-20" x1="674.93" y1="309.75" x2="699.7" y2="303.65"/><line class="cls-20" x1="679.52" y1="320.84" x2="697.11" y2="315.77"/><line class="cls-20" x1="679.52" y1="332.83" x2="706.58" y2="327.69"/><line class="cls-21" x1="707.95" y1="335.36" x2="682.73" y2="339.62"/><line class="cls-20" x1="739.14" y1="292.9" x2="759.89" y2="288.25"/><line class="cls-20" x1="740.28" y1="300.17" x2="766.86" y2="293.98"/><line class="cls-20" x1="742.58" y1="307.74" x2="762.53" y2="304.3"/><line class="cls-20" x1="744.89" y1="315.77" x2="754.96" y2="313.47"/><line class="cls-20" x1="798.53" y1="275.78" x2="822.83" y2="269.22"/><line class="cls-20" x1="803.8" y1="282.75" x2="824.21" y2="277.93"/><line class="cls-20" x1="802.88" y1="290.57" x2="824.89" y2="286.19"/><line class="cls-20" x1="806.55" y1="297.08" x2="827.06" y2="292.9"/><line class="cls-20" x1="813.89" y1="314.62" x2="830.86" y2="310.03"/><line class="cls-20" x1="857.91" y1="260.78" x2="881.99" y2="254.28"/><line class="cls-20" x1="866.63" y1="268.07" x2="884.74" y2="262.11"/><line class="cls-20" x1="863.65" y1="275.78" x2="886.35" y2="270.36"/><line class="cls-20" x1="872.59" y1="292.9" x2="880.39" y2="290.57"/><line class="cls-20" x1="871.44" y1="299.03" x2="892.63" y2="291.74"/><line class="cls-20" x1="908.36" y1="329.06" x2="886.35" y2="335.36"/><line class="cls-22" x1="909.28" y1="337.49" x2="890.24" y2="340.63"/><rect class="cls-14" x="632.81" y="194.29" width="283.82" height="22" transform="translate(-167.46 351.64) rotate(-30)"/><rect class="cls-14" x="726.33" y="238.98" width="278.77" height="22" transform="translate(-199.38 277.64) rotate(-21.89)"/><rect class="cls-23" x="1033.23" y="370.58" width="46.66" height="8.96" transform="translate(-231.84 256.56) rotate(-16.72)"/><rect class="cls-23" x="973.91" y="388.88" width="46.66" height="14.33" transform="translate(-240.39 240.39) rotate(-16.72)"/><rect class="cls-23" x="914.13" y="405" width="46.66" height="8.96" transform="translate(-246.77 223.76) rotate(-16.72)"/><text class="cls-24" transform="matrix(0.89, -0.46, 0.46, 0.89, 500.56, 206.03)">Photos</text><text class="cls-24" transform="translate(584.61 234.78) rotate(-21.9)">Passwords</text><text class="cls-24" transform="translate(654.29 275.89) rotate(-16.72)">Recipes</text></g><g id="Schloss_vorne" data-name="Schloss vorne"><path class="cls-25" d="M712,395s103.11,11,212.5,8c121.53-3.36,250.14,1.69,250.61-15.12.89-31.91,0,249.32,0,249.32s2.69,56.77-69.71,60.27-328.36,0-328.36,0S719,701,718,630,712,395,712,395Z" transform="translate(-168.61 -63.22)"/><ellipse class="cls-14" cx="694.39" cy="464.78" rx="10" ry="13"/><polygon class="cls-14" points="690.79 474.78 684.39 507.94 708.39 507.78 696.39 468.73 694.39 474.78 690.79 474.78"/><circle class="cls-14" cx="775.89" cy="458.28" r="13.5"/><polygon class="cls-14" points="770.96 465.73 762.39 509.06 793.39 508.78 777.89 465.73 770.96 465.73"/><ellipse class="cls-14" cx="855.89" cy="459.78" rx="12.5" ry="15"/><polygon class="cls-14" points="852.39 465.78 843.39 504.94 868.39 504.94 859.7 465.78 852.39 465.78"/><ellipse class="cls-26" cx="690.39" cy="464.42" rx="10" ry="13"/><polygon class="cls-26" points="686.79 474.42 680.39 507.58 704.39 507.42 692.39 468.37 690.39 474.42 686.79 474.42"/><circle class="cls-26" cx="772.89" cy="458.13" r="13.5"/><polygon class="cls-26" points="767.96 465.58 759.39 508.92 790.39 508.63 774.89 465.58 767.96 465.58"/><ellipse class="cls-26" cx="850.87" cy="459.7" rx="12.5" ry="15"/><polygon class="cls-26" points="847.37 465.7 838.37 504.86 863.37 504.86 854.68 465.7 847.37 465.7"/><path class="cls-26" d="M712,395l.69,23s427.44,21.59,462.81-2.52l-.39-27.57S1169.18,399,951,402.42C837,404.21,720.16,398,712,395Z" transform="translate(-168.61 -63.22)"/><path class="cls-27" d="M1089.35,669.29s41.17-14.22,57.78-63.79c6.92-20.64,6.72-14.69,6.87,1.47C1154.23,632.19,1151.14,684.63,1089.35,669.29Z" transform="translate(-168.61 -63.22)"/><path class="cls-28" d="M375,552" transform="translate(-168.61 -63.22)"/><line class="cls-10" x1="113.07" y1="356.79" x2="113.07" y2="356.79"/><path class="cls-29" d="M1153,143.31c1-43.21-28.81-53.41-49.19-59.65l13.45,9.41c14.87,9.22,25.31,23.24,28.25,30.94Z" transform="translate(-168.61 -63.22)"/><path class="cls-29" d="M755,157.68c.81-10.17,30.94-1.45,27.53,9.14C779.05,177.63,754.28,166.73,755,157.68Z" transform="translate(-168.61 -63.22)"/></g></svg>