<svg version="1.1" xmlns="http://www.w3.org/2000/svg" viewBox="0 0 377.5 291.314453125" width="1132.5" height="873.943359375">
  <!-- svg-source:excalidraw -->
  
  <defs>
    <style>
      @font-face {
        font-family: "Virgil";
        src: url("https://excalidraw.com/Virgil.woff2");
      }
      @font-face {
        font-family: "Cascadia";
        src: url("https://excalidraw.com/Cascadia.woff2");
      }
    </style>
  </defs>
  <g><g transform="translate(59.7265625 172.533203125) rotate(0 8.938138127783304 -13.78211383409797)"><path d="M0.7394960481673478 1.013741086050868 C3.7855779527376097 -3.7781017361829683, 15.484847227608165 -23.59676779297491, 18.207683511450888 -28.577968754246832 M-0.33140725588426 0.5003512108884753 C2.6235709691482287 -4.127206579192231, 14.889396200024835 -22.46332026793932, 17.6250195475854 -27.190168505255134" stroke="#000000" stroke-width="1" fill="none"></path></g></g><g transform="translate(14.03515625 176.544921875) rotate(0 25.888671875 25.888671875)"><path d="M5.104602346261143 11.062428088174464 C5.104602346261143 11.062428088174464, 5.104602346261143 11.062428088174464, 5.104602346261143 11.062428088174464 M5.104602346261143 11.062428088174464 C5.104602346261143 11.062428088174464, 5.104602346261143 11.062428088174464, 5.104602346261143 11.062428088174464 M2.959442532755796 18.75360058280927 C5.416786898907594 14.802494342217948, 9.519653813869967 10.55247037300079, 18.66256609944887 1.7288388990669077 M2.406202407688264 21.29952344796908 C7.009401654170201 14.572472485134778, 14.069656752202896 6.856305716571326, 18.52995496908463 2.4569650868757194 M1.9484987190548235 30.80520165356083 C6.9788281002611665 20.80104555927707, 17.293819171506108 11.01298861571637, 23.151304975615158 1.7824847613181714 M0.06231440944558919 28.80239250621034 C8.175120212149778 22.029158342374217, 15.332965361287833 13.949920460265897, 23.86381496069701 1.3519746473710779 M3.413053359141898 31.981979659945367 C13.976630672539851 21.53170907742057, 20.31541724749946 10.534927410874069, 29.924870366614186 2.076926095515839 M2.7930793373420357 33.21597335878819 C9.114752467153911 24.301476633909388, 16.364020658336404 15.625864738020947, 28.077475031290078 2.4566946654695787 M4.022297795311708 35.86000235702631 C13.071213395264632 27.131928906293695, 19.417045805201987 19.68222475263386, 34.55484077964571 3.5180879794956184 M4.797931453594167 36.472321309594186 C10.645767349249788 28.196767914486077, 17.95754633470972 19.07817428520262, 33.213186295485464 2.5144830803350544 M5.175935534764012 40.76706982263937 C18.2590332861959 30.383817278111284, 26.526068985920958 15.22050950471295, 38.50203950993797 2.8873523567615322 M7.080059372823616 40.72885679779216 C12.15788568446008 32.635652779145055, 20.11721956489583 24.865721797505152, 37.24443684343329 3.149037509299653 M10.006855843736552 45.16114858051132 C18.782689863422885 30.548436194276654, 28.500918180773134 20.54802647315172, 41.96009366973821 6.899348456263141 M7.667829656190001 44.02804952093702 C14.65594845322967 34.83139289257142, 23.291494731268344 25.817029237330356, 41.13826076980266 6.20343566764106 M10.129224037410108 46.89577579803235 C23.85895471363514 34.65412035679306, 33.691277231162196 20.36525316469313, 42.635347391246185 11.731485730836157 M12.581627101295975 46.844072632747064 C23.731709696985824 31.806708190236392, 37.65273400458872 17.246112335024666, 42.85390137671523 9.550918307023112 M15.953273132022417 49.089074248929236 C24.299072442321012 39.84159166790153, 30.344319185191303 29.424003523710322, 44.654066681661654 13.610001758316281 M15.367396394301153 46.2330677057772 C27.423019093957315 35.14360182545022, 37.723627899725216 22.17301486802433, 46.46876602879261 12.962187116609636 M20.809158018811203 50.407994831928775 C28.32542310183949 38.13303771110152, 41.439585305858515 23.117814083324305, 50.781762336212864 15.886590982207542 M19.43924628386513 49.39863725008236 C27.67506550767508 38.55183931806965, 37.62981303958383 29.37307414053834, 49.61649906618493 15.463283463732784 M25.75869157997625 50.86197824986668 C31.945198637134595 40.745948452160604, 43.02933579494089 30.345169740585305, 51.26674896714705 19.096195131459503 M24.10993569710957 49.76675639232637 C32.27384257834494 39.54397108561096, 40.673753271626474 30.02186105701839, 50.5492908335613 20.674628813670246 M25.878313427764766 53.407841231692515 C31.992980218868013 47.967500524658966, 38.30475043271314 42.29676554147938, 51.276117235654475 23.731826578685087 M27.09259247870355 51.871909097786926 C36.44173095575049 42.61554248923326, 44.51918759071447 33.498714496780195, 50.79259991203386 23.86709808786307 M34.94353436831957 52.686923248905345 C41.89307650042171 43.754781003000744, 44.89590136350388 35.88835789932353, 53.17870259095389 27.849454562165562 M34.40390785471177 50.37548488679121 C40.05833848403922 43.005332102099786, 45.61563534515076 37.31121614737175, 51.64687185824323 28.848155885920647" stroke="#ced4da" stroke-width="0.5" fill="none"></path><path d="M36.44420268774143 3.0578601859206422 C41.23426577109882 4.819990713700406, 46.28851030239978 9.770638934304543, 48.86866549867271 14.407120715916571 C51.448820694945645 19.0436024975286, 53.09360142181973 25.61605746442756, 51.925133865379024 30.87675087559282 C50.75666630893832 36.137444286758075, 46.325347548974804 42.65163147027662, 41.85786016002851 45.97128118290812 C37.39037277108221 49.290930895539624, 30.759177602379697 51.12195508041438, 25.120209531701267 50.79464915138184 C19.481241461022837 50.4673432223493, 12.243045370868277 47.697193002583745, 8.024051735957919 44.007445608712885 C3.8050581010475595 40.317698214842025, 0.335188000757381 34.098265246596974, -0.19375227776088622 28.656164788156694 C-0.7226925562791534 23.214064329716415, 1.8632076908579833 16.041150917805933, 4.850410064848315 11.354842858071216 C7.837612438838647 6.668534798336499, 11.992158074798844 1.9005554761864687, 17.729461966181105 0.5383164297483951 C23.466765857563367 -0.8239226166896785, 35.09895948337933 2.3372889907204644, 39.27423341314188 3.181408579442774 C43.449507342904425 4.025528168165084, 42.94140692769276 4.958618500840989, 42.7811055447564 5.603033962082254 M30.522344619579037 1.3167351222210897 C35.75925151387759 1.8889308094192372, 39.933759495984106 4.467545061334681, 43.6816793685685 8.399027821708469 C47.4295992411529 12.330510582082256, 52.668486496007134 19.357148036163963, 53.00986385508541 24.905631684463813 C53.35124121416369 30.454115332763664, 49.20165305910618 37.45140395414154, 45.72994352303816 41.689929711507574 C42.25823398697014 45.92845546887361, 37.43406191071866 49.0308173684644, 32.17960663867732 50.336786228659996 C26.92515136663598 51.642755088855594, 19.40838388468388 51.87050710945856, 14.203211890790111 49.525742872681164 C8.998039896896346 47.18097863590377, 3.0484621708928805 41.680456457781965, 0.9485746753147275 36.268200807995655 C-1.1513128202634255 30.855945158209344, -0.21670280735871805 22.573327756593432, 1.6038869173211943 17.05220897396331 C3.424476642001107 11.531090191333188, 7.405898222443878 5.921368029151392, 11.872113023394201 3.1414881122149225 C16.338327824344525 0.3616081952784529, 25.29557306152023 0.9772481694761345, 28.40117572302313 0.3729294723444916 C31.50677838452603 -0.2313892247871513, 30.155939450748047 -1.05187288389789, 30.505728992411598 -0.484424070574935" stroke="#000000" stroke-width="1" fill="none"></path></g><g transform="translate(111.185546875 176.87890625) rotate(0 25.888671875 25.888671875)"><path d="M9.89949826419675 5.9554765654033694 C9.89949826419675 5.9554765654033694, 9.89949826419675 5.9554765654033694, 9.89949826419675 5.9554765654033694 M9.89949826419675 5.9554765654033694 C9.89949826419675 5.9554765654033694, 9.89949826419675 5.9554765654033694, 9.89949826419675 5.9554765654033694 M3.26757662638944 18.827314047165203 C8.55751871232151 13.669853400782651, 14.70411390184959 7.926438508103082, 15.65442435122818 5.99168415584897 M1.4428719150639733 20.50619365556537 C7.184092381083223 14.92925183789141, 12.507867525144402 9.170699928844128, 17.248204774742725 3.3665076264489198 M3.9371891190801858 27.49198902847099 C11.463726664783568 15.997871329550854, 18.71654819884959 9.31304749120017, 25.620297223545677 0.6401642901272311 M2.1736976328809856 25.994458706880387 C8.428901171698143 19.86639823458793, 11.827895741090295 14.78015587061523, 23.45018234404928 3.0248161196158065 M3.055995802384917 34.589537118441925 C9.348802313336389 23.664204823623805, 17.29974834976611 14.778469676886779, 29.952921521464898 0.8870035880474401 M2.7641513105380575 32.96407117868917 C9.096169557125958 25.06585242537844, 16.137772449830685 18.284914416128373, 29.29235169998051 2.52115071520638 M1.1506533085033972 39.602055269913734 C15.675481451935964 22.55490085392036, 28.033169844110418 11.570591358513905, 33.020750752185606 5.591252127445305 M2.4508200001568277 37.94842807265556 C13.61381164275839 27.413158321373757, 22.919463494252575 16.132014554559337, 33.54352645715805 4.497306852384472 M5.0737991736259005 42.05575898049932 C18.389275570385763 28.63634410601011, 29.53531617354614 13.567458387254163, 37.89360126891705 4.477997691379299 M5.619513845349445 40.24867774772059 C16.99669972746713 27.43004212831687, 28.964999324498475 15.556837106992457, 36.46587526371303 4.716000488036682 M8.943079606009142 44.37115893437105 C19.87566948303432 33.55287551979454, 27.578765232720976 21.08449170526504, 41.87409324188748 5.705575348353449 M9.9630438492945 43.06514656188476 C22.312063916476212 29.347821817836696, 33.226780421416336 14.311520270104054, 41.565112772295564 6.9093276769951615 M13.545298804871877 46.37375561981016 C20.32565883746087 33.671667554480464, 33.02214414105645 20.47069827876441, 45.96544580329666 8.904519551203464 M12.104121193632622 45.289283489757416 C22.684571818484642 33.84879412499705, 33.26845785276119 19.946090240062063, 46.2770447850273 8.098966670923744 M13.89968284443286 49.1253776500979 C23.267942479653428 39.98772315818269, 32.13563932730283 27.206220127467432, 48.498386757410806 11.537159939324447 M14.377371122504442 49.616248443447944 C26.882450504647757 35.52283023388173, 38.29180263982735 22.555087747016874, 47.813227963596326 12.237023720545658 M19.44537967391083 49.736681763515534 C29.406713989863032 40.487109588526565, 38.984275467683446 26.63068852663751, 49.815597044410694 17.63476805510656 M17.23558294255057 50.638662272565725 C26.432158462291497 43.499373149304894, 33.73333505227444 34.26103144350471, 49.06416429310529 15.224429792079189 M22.85319523348657 51.160814502453206 C31.985793152571937 44.250250189150876, 39.775277418902405 36.22354348075332, 51.93044336351507 18.42128188683106 M23.280196138873674 50.921518443329035 C33.81585764874891 40.572954336709984, 43.353234933343536 28.70561034665948, 50.47678370519482 20.815915110133723 M27.684326077426302 50.81713675630603 C38.17597282328469 42.8054876590575, 45.73127485602723 31.63947138206674, 51.33871428894269 26.10696754777919 M29.13878299816184 50.90715758146111 C37.54408250373305 40.85339403295862, 46.251644112329664 31.72688394304281, 52.084930194005544 24.69492083681862 M33.73086286692028 48.57366089768695 C40.469641301647435 43.42102419378789, 46.994065833484655 38.22643424550354, 51.26976609596926 33.22917675756884 M34.024302101527205 51.17895460840302 C38.70748392046511 45.68400571206023, 41.48157727895307 43.447912000790076, 49.97925764223504 33.095606553079904" stroke="#ced4da" stroke-width="0.5" fill="none"></path><path d="M27.750455186268795 0.9570592416631669 C33.24734810753075 0.7194155177089149, 40.356085710151845 3.2330845882840085, 44.21629837373855 6.934018392250977 C48.07651103732526 10.634952196217945, 50.4195887611177 17.789545188061293, 50.91173116778903 23.162662065464975 C51.403873574460356 28.535778942868657, 49.924526530280396 34.65746860758407, 47.1691528137665 39.17271965667306 C44.41377909725261 43.68797070576205, 39.414145949603935 48.455096356339084, 34.37948886870568 50.254168359998886 C29.344831787807426 52.05324036365869, 22.344048050516196 51.969039563008536, 16.96121032837698 49.96715167863188 C11.57837260623776 47.96526379425522, 4.648047485810984 43.24392898241287, 2.0824625358703663 38.24284105373896 C-0.48312241407025214 33.241753125065046, 0.2811432621298555 25.323121313264927, 1.5677006287332667 19.960624106588398 C2.8542579953366776 14.598126899911868, 5.288187456020735 9.299027302930782, 9.801806735490834 6.06785781367978 C14.315426014960932 2.8366883244287773, 25.153645469100194 1.4857684063557426, 28.64941630555386 0.5736071710823829 C32.14518714200753 -0.3385540641909769, 30.82481767634956 0.27824666455239705, 30.776431754212833 0.5948904020396206 M21.660334269587835 0.3495297836680109 C26.55895985703051 -0.5169578900733001, 33.5795311868457 0.8135358925571254, 38.299187271210485 4.01687143070092 C43.01884335557527 7.220206968844716, 48.26957215843328 14.118167874497423, 49.97827077577654 19.56954301253078 C51.686969393119796 25.020918150564135, 50.69734189487706 31.642451970927436, 48.55137897527006 36.72512225890106 C46.40541605566306 41.80779254687468, 41.80145366621611 47.75596663445577, 37.10249325813453 50.06556474037252 C32.40353285005295 52.37516284628928, 25.51710049089094 51.97519739724817, 20.357616526780564 50.5827108944016 C15.198132562670189 49.190224391555034, 9.349766118810521 46.056687775175206, 6.145589473472281 41.710645723293126 C2.9414128281340406 37.36460367141105, 1.218726051465648 30.001351167794844, 1.13255665475112 24.5064585831091 C1.0463872580365923 19.011565998423357, 2.3178106649999664 12.846481720281421, 5.628573093185114 8.741290215178669 C8.939335521370262 4.636098710075918, 18.10348554085477 1.4422809005200488, 20.997131223862006 -0.12469044750740821 C23.89077690686924 -1.6916617955348652, 22.63291632959466 -1.2903363225471023, 22.99044719122854 -0.6605378729860725" stroke="#000000" stroke-width="1" fill="none"></path></g><g transform="translate(212.970703125 174.11328125) rotate(0 25.888671875 25.888671875)"><path d="M5.095320019457051 11.054359084587592 C5.095320019457051 11.054359084587592, 5.095320019457051 11.054359084587592, 5.095320019457051 11.054359084587592 M5.095320019457051 11.054359084587592 C5.095320019457051 11.054359084587592, 5.095320019457051 11.054359084587592, 5.095320019457051 11.054359084587592 M3.2384946948204156 20.939643760885907 C4.240872076192475 18.66021452674285, 9.51775411165254 12.020492955175634, 17.678812558938997 0.4009110848565527 M2.416661794884872 20.243730972263826 C7.131347899994324 14.638660541826212, 12.122728965639965 9.322378038610603, 18.385085841817098 2.918548893663747 M-0.022605757614657662 30.300038516795556 C10.435504233186471 17.730570585440326, 15.240208289885082 11.564997411846303, 24.55882111894318 1.4334654859261757 M0.1959482278543856 28.11947109298251 C6.039059233225241 22.49677035110658, 12.53344702131718 14.610173794330072, 23.91134199736991 2.9687880226405507 M0.6839954748197989 33.68797370472123 C13.806395234407717 19.192236471842048, 21.777243590252368 7.662409217645461, 26.0941927618331 3.4973938646569316 M2.498694821950753 33.040159063014585 C11.284901767394631 22.977935748384745, 20.095856102649027 13.845035900850906, 28.62305442886266 2.1789230485289757 M6.155632100380505 36.71927250883526 C14.44705232578783 26.607673934603007, 25.04108224717369 12.388074832686907, 33.01723515783701 3.1963437895528433 M4.990368830352569 36.2959649903605 C12.071185378663742 28.373902086285913, 19.493726595369615 20.036990996636703, 32.62359403894547 3.7458937761611697 M7.296677760305197 39.17416707786444 C17.792392823858272 26.76061038589394, 29.771373272360545 14.112985123238484, 37.166913968145174 3.1014526332268417 M6.579219626719446 40.75260076007518 C12.758303916323182 31.888979246292994, 20.827582992852623 22.990641722467146, 38.22748190873049 3.776512626978189 M8.618164086793637 42.3003793646445 C19.943768058469768 30.10196820626008, 31.616551607158286 18.5833246083726, 38.4915264390428 9.129781695519588 M8.13464676317302 42.43565087382248 C16.692674488447167 34.802214367025904, 24.124301738539227 25.938707089808098, 41.18181289192479 7.947148762148819 M12.488926529064578 44.15387860745665 C22.3160248131135 36.12064146424399, 32.1559710291174 24.356093742154858, 42.32555906869167 9.998495858375689 M10.957095796353919 45.15257993121173 C19.2628751139451 38.79942870499609, 24.788197233151152 30.968618009641446, 43.161863281612035 9.239157737445792 M14.635222411336766 46.90196216958217 C26.619339194367758 36.20095462854641, 36.137654658387305 23.9636428406627, 46.45600702732003 11.131555190299176 M15.496426345402764 48.077063469352346 C27.728580711191164 34.89147758860034, 39.01645942725658 20.46166344385404, 47.056160230442345 13.126823107701265 M19.672171903838453 48.390465119525075 C26.352943924324126 43.858107622799515, 30.98458170926218 35.03687957510162, 48.558346389146635 13.434538304571296 M19.102103062969682 50.597447543076456 C25.71490924331237 41.138960569114786, 31.781099206207386 34.67004445551057, 49.62120398255635 14.633429785024608 M23.947317051797867 54.20155065078938 C31.715769209892045 40.81571597478034, 40.019191759624064 31.315119251338174, 51.1037389874282 19.88069026036439 M22.085504664204777 52.6557891447162 C29.88004598042178 43.78004983748174, 38.44929307390105 33.177723940202064, 50.60742272863264 20.19856193991629 M28.976594007367318 50.428533440096935 C33.72925742145631 45.68575802850487, 41.65164440949285 36.912166808565765, 51.4192407623455 27.266907600068606 M29.374646158682232 50.803929562321564 C34.07672069941166 45.035013048553566, 39.89630642724012 38.78290878530064, 50.038130953773866 25.71533803859458 M37.19853439183201 49.091990412288396 C39.97226138849708 45.83233458030521, 40.427751535365424 41.85781464059073, 50.658652442107815 29.328043731742437 M35.48713021260913 49.90085514456132 C41.38379260961637 42.590523437771964, 48.32409839687739 34.460787222750106, 51.399130118611176 30.9259662254461" stroke="#ced4da" stroke-width="0.5" fill="none"></path><path d="M36.99151765621123 3.6416105597811743 C41.56866537517697 5.611858511291765, 46.68766824656184 10.351981092416876, 49.05354064209891 15.270985857471263 C51.41941303763598 20.18999062252565, 52.55783487033805 27.755400308962038, 51.18675202943365 33.1556391501075 C49.81566918852925 38.555877991252956, 45.71820605386045 44.560752815485614, 40.82704359667252 47.67241890434401 C35.935881139484586 50.78408499320241, 27.315646267170568 52.5934712378461, 21.839777286306063 51.825635683257914 C16.36390830544156 51.057800128669726, 11.635761429407646 47.05573784174928, 7.971829711485487 43.06540557681487 C4.307897993563328 39.07507331188046, 0.2954538044710002 33.26500547586197, -0.14381302122689377 27.883642093651442 C-0.5830798469247878 22.50227871144092, 1.857717524884229 15.357864983440408, 5.336228757298123 10.777225283551733 C8.814739989712017 6.196585583663057, 14.213690724692153 0.9533368603574388, 20.72725437325647 0.39980389431939045 C27.24081802182079 -0.1537290717186579, 39.80878505217728 5.054795308321154, 44.41761064868403 7.456027487323443 C49.02643624519079 9.857259666325731, 48.811254829052835 14.557048368505967, 48.380207952296985 14.80719696833312 M26.3768203402739 1.5064598641348184 C31.692486460732038 1.5590809142420845, 38.01301366225131 4.0206792046948525, 42.08234506013193 7.7172778769042125 C46.151676458012545 11.413876549113573, 49.83962780062737 18.443132072659182, 50.79280872755761 23.68605189739098 C51.74598965448786 28.928971722122775, 50.51662598049359 34.687102107220355, 47.80143062171338 39.174796825295 C45.086235262933165 43.66249154336964, 39.61308714824199 48.88262367889743, 34.50163657487633 50.612220205838824 C29.390186001510674 52.34181673278022, 22.585298371706347 51.619031449136294, 17.13272718151945 49.55237598694336 C11.680155991332551 47.48572052475043, 4.7899776244088255 43.140753521847834, 1.7862094337549337 38.21228743268123 C-1.217558756898958 33.283821343514624, -2.3461674244766497 25.686954775496535, -0.8898819624039014 19.981579451943738 C0.5664034996688472 14.27620412839094, 5.828316954107064 7.162574151736752, 10.523922206191425 3.9800354913644433 C15.219527458275788 0.7974968309921344, 24.66384329439137 1.615389791760117, 27.283749550102268 0.886347489709884 C29.903655805813166 0.15730518765965107, 26.22155471783073 -0.9244118257553756, 26.243359740456825 -0.39421832093695386" stroke="#000000" stroke-width="1" fill="none"></path></g><g transform="translate(314.908203125 174.71875) rotate(0 25.888671875 25.888671875)"><path d="M4.135378074498085 11.54490727611006 C4.135378074498085 11.54490727611006, 4.135378074498085 11.54490727611006, 4.135378074498085 11.54490727611006 M4.135378074498085 11.54490727611006 C4.135378074498085 11.54490727611006, 4.135378074498085 11.54490727611006, 4.135378074498085 11.54490727611006 M0.984854266193123 19.930588817587513 C3.5516768973117454 15.499843450100899, 8.856916925730788 11.23625485290254, 18.06523029013989 1.639289207926259 M1.0687702048163725 20.636862100465613 C7.9336355429288865 14.516034379845966, 12.849796801692413 7.371600783796003, 17.321831881734408 3.054717066867516 M1.8890795745994193 29.730785147250515 C8.213809337447291 17.352793940560794, 20.427375507517173 6.210114687829847, 22.414027357016963 1.1817608893917022 M0.2417416806440098 29.083306025677246 C6.413811546696887 22.058904825943973, 11.515065386953006 14.458919932229724, 22.464846803349715 2.287254817697507 M1.161484694766143 29.65808707846263 C12.748330061442854 21.355302814433212, 21.14313681011657 9.45599832177733, 29.24915445624267 2.3612240717116357 M3.1950147409981877 32.18694874549219 C10.964490989088903 21.32444923984744, 21.53471326187511 9.200246609379391, 29.662349907032898 1.7188291667330624 M3.6621100370409927 36.38382837200201 C11.955263609814061 24.543910339472916, 23.359366308963775 15.970714651742902, 35.15001832609826 1.7203423291048132 M5.21102359505473 35.99018725311047 C13.958884152550702 24.11924436989709, 25.327246120988356 12.216471167588335, 35.022587042393326 0.48484660811481106 M6.704355397686236 38.26937844164186 C16.246309401285316 25.724866869825128, 26.291567619232374 14.450882886394467, 38.58917674289346 4.235829851458298 M6.1241946504040286 39.32994638222718 C13.070661804451918 32.16462390131061, 20.110966363860253 24.86074299118646, 38.176837909568846 2.2280064391516916 M8.338712582002099 41.364866897046475 C21.424365838764846 29.35295882356042, 32.05166649360109 17.478093758412115, 39.33725172390003 4.222984382768072 M8.885929136174436 44.05515334992847 C20.159974561226583 30.511164382750206, 29.540599516622947 17.51395566968838, 40.96557926215936 5.22158369876156 M10.757678607260349 46.31371648221183 C21.022636458404957 32.81043074251273, 31.07100621956647 22.648749192883923, 41.96331146937074 7.032606381584564 M10.250766305965843 47.1500206951322 C22.22604813283011 32.812186850927276, 35.1865829253502 18.718198628973653, 43.22011684924574 8.285098327916721 M13.108255702704255 48.54014307546559 C25.05041950150275 36.21577224223651, 38.3389498309484 20.966301573203598, 46.711016188596325 11.766756502349295 M13.870133437849645 49.14029627858791 C26.77605028277592 33.97029778690394, 38.30435546362712 21.799033342116317, 46.91998124144687 10.71882265098057 M18.431742961662547 49.493170652140364 C26.972126322729117 36.44634503023383, 40.373475986116745 27.775780215047185, 48.93535421586755 16.447417274503792 M18.513387486482696 50.55602824555008 C27.862419766788257 39.10279134329793, 38.70233986954291 28.529390609219735, 49.91091394688162 15.69119305481651 M20.317121776406964 53.51348758123213 C31.43607556151001 40.02421625057604, 42.6452878821665 30.496440932820594, 49.259082981484624 20.95870268271235 M21.00245051796486 53.01717132243657 C29.112928932586225 42.49253645805105, 37.96949194061835 34.30438055294553, 49.34255838217834 20.399769569010708 M25.77720166420927 54.549204106736866 C32.98769922086568 44.998575590551205, 38.54677780593791 38.014387566683084, 50.97764221469083 25.951391105302626 M26.369205535896025 53.16809429816523 C32.22693560361516 44.49197456619176, 39.8248744845192 37.063655583235445, 51.354623075408426 25.1945188043127 M34.68535638330326 49.324514026759466 C38.442022525968774 44.974530173931505, 47.30044458961366 34.538578273181884, 50.99894559578643 32.08694027693892 M33.57348259733811 50.06499170326283 C38.90970057557151 43.328691043385305, 43.15940003557783 38.27414007608049, 51.29792331820027 30.040578915308654" stroke="#ced4da" stroke-width="0.5" fill="none"></path><path d="M17.326213614908312 2.1736794638185692 C22.305708148500933 -0.07070050510961723, 30.138149832644878 -1.2043079873419282, 35.38999756037081 0.8427173912681738 C40.64184528809674 2.889742769878276, 46.27406107408988 9.465065581837852, 48.8372999812639 14.455831735479181 C51.400538888437914 19.44659788912051, 51.7964427451199 25.48970907551893, 50.76943100341492 30.787314313116145 C49.74241926170995 36.08491955071336, 46.847596935006116 42.6282518702686, 42.67522953103405 46.241463161062455 C38.50286212706198 49.85467445185631, 31.426897500935123 52.59872867913983, 25.735226579582534 52.466582057879265 C20.043555658229945 52.3344354366187, 12.80406193157479 49.270629121811226, 8.525204002918517 45.44858343349907 C4.246346074262244 41.62653774518691, 0.8311648356731306 35.14184142544183, 0.06207900764489693 29.534307928006335 C-0.7070068203833367 23.92677443057084, 0.3795760842032654 16.657726890231977, 3.9106890347491152 11.8033824488861 C7.4418019852949655 6.949038007540223, 17.71214103168468 2.2920410510101936, 21.248756710919995 0.4082412799310724 C24.78537239015531 -1.475558491148049, 25.036137951458795 -0.0763976465600541, 25.130383110161002 0.5005838224113717 M16.534388827839336 2.312766021781382 C20.953867084466694 0.11513798358095206, 27.251292934270445 0.07887224310669372, 32.39052378879015 1.7731519412996022 C37.52975464330985 3.467431639492511, 44.20670572671439 8.209983058705681, 47.369773954957545 12.478444210938832 C50.5328421832007 16.746905363171983, 51.89091869458603 22.29993170232948, 51.36893315824908 27.383918854698507 C50.84694762191213 32.46790600706753, 48.23322690109427 38.855953929843224, 44.237860736935865 42.98236712515299 C40.24249457277746 47.108780320462756, 33.21718939785291 51.443675092567474, 27.396736173298663 52.14239802655709 C21.576282948744414 52.841120960546704, 13.607089548166787 50.616078610159555, 9.315141389610362 47.1747047290907 C5.023193231053937 43.73333084802184, 2.920305896281559 36.833847374128, 1.6450472219601089 31.494154740143948 C0.36978854763865865 26.154462106159897, -0.8573228760972604 19.781128995939618, 1.663589343681661 15.136548925186403 C4.184501563460582 10.491968854433187, 14.446783473194177 5.909042604066272, 16.770520540633637 3.6266743156246513 C19.094257608073097 1.344306027183031, 15.599071045352147 1.391350703800148, 15.606011748318416 1.4423391945366824" stroke="#000000" stroke-width="1" fill="none"></path></g><g transform="translate(64.521484375 86.02734375) rotate(0 25.888671875 25.888671875)"><path d="M3.3374838627972805 13.50133440639584 C3.3374838627972805 13.50133440639584, 3.3374838627972805 13.50133440639584, 3.3374838627972805 13.50133440639584 M3.3374838627972805 13.50133440639584 C3.3374838627972805 13.50133440639584, 3.3374838627972805 13.50133440639584, 3.3374838627972805 13.50133440639584 M3.895227684458339 20.91358607566842 C4.131916446461727 17.74331538423882, 9.318124033948859 12.942030792819622, 18.072133545283407 3.9742383803971073 M1.7817669006116628 20.048089012754346 C7.403649126420075 14.657448313762544, 12.095571968113529 9.621429113879614, 17.785790174719125 3.8933978719435594 M1.2654591571917813 26.537144678945026 C6.954163397346756 18.898516068196557, 14.238813965028632 11.264682703924944, 20.657883751465597 3.481697459056461 M1.4528222704684417 26.74198565662124 C9.202041532771933 19.48779348505419, 15.564124075605715 11.56599828930221, 22.713771863168695 3.2567374792913437 M1.4908749488327224 33.382863285128735 C8.517926452951528 24.25363531313336, 16.911409368993283 18.61481672594767, 25.629656761543018 4.076021345599715 M3.048492310490044 33.1305278456926 C9.027050340589764 26.260720061968815, 14.840368502618285 19.444195798356112, 27.759041423567695 3.603041938773517 M5.180162941580928 36.663307597055265 C12.541497482052215 27.945523781379514, 19.0953212253506 19.085584742369722, 34.21899636170595 1.4670192876398112 M5.23309844779811 35.913128206632265 C16.864107611879547 22.005530007648424, 27.897354128318007 8.316180963562811, 34.71170587452828 3.0479127343311454 M5.800578718693121 39.79312892389696 C13.554312497965867 33.33898643135164, 18.953808220066257 21.85195293100751, 36.23533695223009 3.143214879794625 M6.665271998071237 39.40241778494071 C18.45111855533777 26.757662204197313, 29.432183874601556 12.121940513705695, 37.044255036248025 4.42804850941023 M7.738153912369057 42.145049218489504 C18.44337909688034 34.954658166243114, 28.53123829598141 22.275933221688025, 42.06256606930572 5.599573619677097 M9.276912513431057 43.561481082281745 C14.688136982587345 35.63377314767032, 21.13530231340783 29.805341179463383, 40.126874052339076 7.8102226229518354 M11.924605913846484 49.4094568795597 C23.02280290411362 34.3715390945057, 32.28619885801044 21.053957907725593, 42.285934095132596 10.697098710122926 M10.118847492537192 47.64470185871029 C22.847494478606286 34.36021405033802, 32.92482985714824 22.06292006926395, 44.07310309992308 9.132128951619787 M13.241487192296681 50.10510136927495 C24.5437192600929 35.88356222572496, 34.15155462694689 24.639125949459554, 45.911377170948455 10.739459799858913 M15.983731699482796 48.98970775022188 C23.572012754605367 40.21236988066464, 31.64919542962398 30.292038005477856, 46.17791030265964 12.56026063046901 M17.55468180198586 51.22165607703035 C31.94714983945203 37.27946726960285, 43.906231350354645 22.380582731864692, 51.80148942895306 15.24781634172076 M18.659293670955957 49.94118313253974 C25.98926942424579 42.75887211410192, 31.961585587068782 36.13776012392697, 51.572413962670396 13.54598341116333 M23.054908875113796 50.20215545566161 C32.92835741231845 38.63113565693519, 45.949901003426675 25.25392356968307, 53.64637367341264 18.075122975103575 M23.487589209078322 52.11455625732769 C32.94693937331341 41.16657620524886, 42.18289295270769 29.33874825918768, 52.41348324164345 19.221091044425982 M25.88463233190872 53.30259082367276 C33.292780528469464 45.18676495783844, 41.00908099358132 34.74270815070267, 52.64808584450796 22.143276242397526 M27.2106610915 52.036845054417896 C35.07478477511128 44.31542859758466, 42.63611103745549 34.581340922871846, 53.78693262468144 23.41620199647526 M36.88615117053243 48.85731456300841 C39.29020804108784 45.78145366997483, 43.690949898122184 39.04895586113049, 52.523308612467254 28.821548712106633 M35.937379361304664 48.69331132958309 C39.91417971158265 44.24837670196239, 42.708310516570336 41.26795858303285, 52.92894551443448 29.320443572143304" stroke="#228be6" stroke-width="0.5" fill="none"></path><path d="M14.768275001325872 2.238902864341501 C19.449498324852627 -0.08453397850355637, 26.708843599627368 0.1572403643277731, 32.235649580935444 1.6901190749476562 C37.76245556224352 3.2229977855675394, 44.739884583915895 7.067821573457469, 47.929110889174325 11.4361751280608 C51.118337194432755 15.804528682664131, 52.057398100455615 22.248751578692016, 51.37100741248602 27.900240402567636 C50.68461672451643 33.55172922644326, 47.88612939646143 41.268449530038914, 43.81076676135675 45.34510807131451 C39.73540412625208 49.42176661259011, 32.579811820450274 52.07544590612987, 26.918831601857974 52.360191650221225 C21.257851383265677 52.64493739431258, 14.09025896632718 50.559619588704464, 9.844885449802963 47.05358253586261 C5.599511933278744 43.547545483020755, 2.5288885052150194 36.918620791935986, 1.446590502712663 31.323969333170105 C0.364292500210307 25.729317874404227, 0.7638337711560692 18.506039844836526, 3.3510974347888265 13.485673783267336 C5.938361098421584 8.465307721698146, 14.348809648655637 3.3307173518421167, 16.970172484509206 1.2017729637549692 C19.591535320362773 -0.9271714243321783, 18.871520595635978 0.09566077308528342, 19.07927444991024 0.7120074547444517 M37.739849138445805 0.9674772128083369 C42.68664606460962 3.0092729374671, 48.486286488072146 10.913419718774593, 50.710444629762236 16.199047225916196 C52.934602771452326 21.4846747330578, 52.666883892649345 27.757529683130418, 51.08479798858635 32.681242255657956 C49.50271208452336 37.60495482818549, 45.82592684207462 42.76609273661398, 41.217929205384266 45.74132266108142 C36.60993156869391 48.71655258554886, 29.23512947649155 50.67191532145736, 23.436812168444195 50.532621802462614 C17.63849486039684 50.393328283467866, 10.403909336432216 48.55729829204387, 6.4280253571001325 44.90556154711294 C2.4521413777680485 41.25382480218201, 0.14654980318973843 34.368721256232654, -0.4184917075483092 28.622201332877054 C-0.9835332182863569 22.875681409521455, -0.21376327160125586 15.243588199606378, 3.037776292671847 10.426442006979352 C6.289315856944949 5.6092958143523255, 13.3086982570394 1.0444798201230752, 19.090745678090308 -0.2806758228851045 C24.872793099141216 -1.6058314658932842, 34.74430372834034 2.0554867143978837, 37.73006081897731 2.475508148930274 C40.71581790961427 2.895529583462664, 37.40163645800821 1.980176070888587, 37.005288221912124 2.239452784309236" stroke="#000000" stroke-width="1" fill="none"></path></g><g transform="translate(259.189453125 82.05859375) rotate(0 25.888671875 25.888671875)"><path d="M5.460530618392536 10.046818821403317 C5.460530618392536 10.046818821403317, 5.460530618392536 10.046818821403317, 5.460530618392536 10.046818821403317 M5.460530618392536 10.046818821403317 C5.460530618392536 10.046818821403317, 5.460530618392536 10.046818821403317, 5.460530618392536 10.046818821403317 M3.288180696979026 17.464194500278925 C6.278718161986366 14.200369926191575, 12.084673461269421 10.413981616631325, 16.64534087625764 4.921346819312745 M2.838850260494138 18.234694938240814 C7.001130657667262 12.879232194488576, 11.970845701588484 9.011843848664071, 15.802095720846802 4.334449982601652 M0.25793048895056536 28.59673700769499 C6.872366180715828 21.683949113028973, 14.035066851753687 12.827187275665226, 23.279142483835066 1.3578066852066382 M1.8388239356418996 25.904302245090456 C8.62160577363299 20.48898123163908, 13.361219210037731 12.552774458260231, 22.728581492555286 3.2281966189045175 M1.1152607792856895 33.207124099718854 C9.620125537871385 24.889037461847472, 14.271605588598227 17.146783527222887, 27.912932004875927 3.1511312879593056 M2.4000944089012943 31.411259274581898 C9.381522565898841 24.343053895792384, 13.49913815147557 18.02318057977325, 27.94401677055606 3.643855433721928 M2.6541036661161996 33.7319586397182 C14.795305139977522 22.48698329514227, 26.366011420994734 10.878681722373365, 31.01339823795292 1.896022586878967 M4.864752669390938 35.969995714634265 C10.243944843279904 28.757214392597334, 17.10992563988286 22.334223875157967, 33.20521220328096 2.9479429365886567 M7.588822483732848 40.583848157134526 C13.965224550373826 29.159160102602538, 21.410774985071825 21.198875132661527, 38.2968576423568 3.2843849864071384 M6.023852725229709 39.92863545211094 C13.030472166229991 32.326340619606036, 19.62175146203468 23.75132768298197, 36.59912023634885 3.8020595768680945 M6.713667720416879 43.02811247618661 C14.824073651463028 33.98437951045737, 25.73409427124846 26.1629052913872, 41.5280728603593 6.793625605539805 M8.534468551026976 44.90500685615257 C18.168498966517557 32.4617240922332, 26.994527722314306 21.68307097802227, 41.57852231085961 6.039050705978102 M13.027395076421062 43.860864555424854 C21.23751928982542 36.319802546964965, 29.486774799879196 23.075461759645584, 45.396398543270166 8.402411759164032 M11.325562145863632 46.68347361773144 C22.738577124718944 32.779256825614624, 32.31733002393485 20.4891840638216, 43.119424689451094 8.597514058727619 M13.985175174064622 49.14360628995912 C26.93517840390986 35.65351341846977, 37.05145586083553 24.014741694478403, 47.54493067033267 12.476365575607474 M15.13114324338703 48.16828055187928 C23.59356840685814 37.40992549250872, 32.719760671845286 26.676761235448833, 46.0314577751947 11.626244370866175 M16.83986093460982 50.579503968562605 C28.623055839288384 39.37285354811082, 34.74692523410906 29.521381023589473, 48.85423917184705 15.766788539534433 M18.112786688687553 49.978579054791155 C26.169350405809986 41.6450073859431, 33.60701302583976 32.65876186086439, 48.5228587347188 15.701707921979947 M21.5499563173474 50.49327449567683 C28.07224156621601 46.16489136208381, 35.920402882288286 35.040009170295924, 52.159399190085054 16.80577526994088 M22.048851177384073 52.64706332583047 C27.534798992001832 45.35582170295732, 36.01904979223299 35.66770413034163, 51.198752759123266 17.441906313486783 M26.84058855152065 51.98100874962947 C34.25435375542963 45.456440587670386, 37.728070806840506 38.02307441491005, 52.470077876356434 23.376680581713895 M28.676701487547998 50.98854372574678 C36.92235380801724 40.41769666648561, 47.578148004679164 29.151057372611493, 52.56248986104597 24.195593530195634 M32.487240759448774 50.90889612553034 C37.845003923113495 43.35412050380954, 44.46102730067099 38.02252821732546, 51.687565651923435 29.909233263626668 M35.25769110282666 49.31742131957177 C39.734227346764925 44.34976649246658, 44.27796895906597 38.31488151179766, 52.01392613557728 29.656139718301567" stroke="#228be6" stroke-width="0.5" fill="none"></path><path d="M21.262011200567652 1.3516184267844018 C26.32807125933603 0.09275109538038184, 33.48092340212481 0.5433153279373575, 38.22549986616286 3.056389345767407 C42.97007633020092 5.569463363597457, 47.799378907600385 11.19961190459086, 49.729469984796 16.430062533764698 C51.65956106199161 21.660513162938535, 51.63655886922138 29.111777545650394, 49.80604632933652 34.439093120810426 C47.97553378945165 39.76640869597046, 43.5730302889437 45.53255431888089, 38.74639474548681 48.3939559847249 C33.91975920202992 51.255357650568904, 26.195144759546107 52.479253820816496, 20.846233068595208 51.60750311587445 C15.497321377644308 50.735752410932406, 9.982185161497691 47.36516204431086, 6.652924599781411 43.163451755072614 C3.32366403806513 38.96174146583437, 1.028123489587795 31.964165729817438, 0.8706696982975224 26.397241380445013 C0.7132159070072497 20.83031703107259, 1.4875204631447483 14.069491677659286, 5.708201852039775 9.761905658838078 C9.928883240934802 5.454319640016869, 21.849572464139232 1.8776049233512897, 26.19475803166768 0.5517252675177566 C30.539943599196125 -0.7741543883157764, 31.936259262823377 1.3436924136086386, 31.77931525721045 1.806627723836879 M35.40033348441598 2.7325977216550434 C40.2869111327126 4.448569028556998, 47.03509623898622 9.1355370641243, 49.79336143545705 14.010711384143377 C52.55162663192788 18.885885704162455, 53.32940759928451 26.485586206014705, 51.949924663240964 31.983643641769504 C50.57044172719742 37.4817010775243, 46.36503034869049 43.86887864476139, 41.516463819195785 46.99905599867216 C36.66789728970108 50.129233352582936, 28.598142459536763 51.07280441374797, 22.858525486272747 50.764707765234135 C17.11890851300873 50.4566111167203, 11.060755822962777 48.71932012770284, 7.078761979611695 45.15047610758918 C3.096768136260613 41.58163208747552, -0.45714298085934624 34.72577400371203, -1.0334375738337442 29.351643644552194 C-1.6097321668081421 23.977513285392355, 0.38081455633095596 17.582104826378245, 3.6209944217653067 12.905693952630147 C6.861174287199658 8.229283078882048, 13.169170304050777 3.319177050129487, 18.40764161877236 1.2931784020636101 C23.646112933493942 -0.7328202460022668, 32.213825842416796 0.5852365655169512, 35.051822310094806 0.7497020642348851 C37.88981877777282 0.9141675629528189, 35.630657957613046 1.7604888244843462, 35.43562042484041 2.2799713943712128" stroke="#000000" stroke-width="1" fill="none"></path></g><g transform="translate(162.384765625 10) rotate(0 25.888671875 25.888671875)"><path d="M5.545400076371711 8.795581722321455 C5.545400076371711 8.795581722321455, 5.545400076371711 8.795581722321455, 5.545400076371711 8.795581722321455 M5.545400076371711 8.795581722321455 C5.545400076371711 8.795581722321455, 5.545400076371711 8.795581722321455, 5.545400076371711 8.795581722321455 M1.4748307276408812 16.843079347772807 C6.742411527318013 15.70273182657688, 11.252892993493639 9.493744542387933, 16.63185210558321 2.2001523628267563 M2.9366513986497806 18.188689618375435 C4.470428675109722 14.707078429161662, 7.022977933251002 13.279480581995076, 14.792944689464901 4.300268915937758 M1.6625666389275064 28.563685294784083 C9.037180584263119 17.81688394347158, 14.584350242290329 8.774332081543825, 20.87089132737499 2.681389989134429 M-0.14319178238178587 26.798930273934676 C8.757104493354314 17.79835476484631, 15.035594166501522 9.87113286716556, 22.658060332165476 1.1164202306312898 M0.3552118014156722 32.278168105390414 C9.359834403117771 20.740346664810303, 16.68935533197949 12.116811339726699, 25.808452461171868 1.21433191842487 M3.097456308601787 31.162774486337348 C8.793628574047457 24.475798012766763, 15.022321721250982 16.68191009145734, 26.074985592883053 3.0351327490349664 M2.044170295142827 36.413561134036904 C15.144143675291613 23.96858787090492, 25.791191952174437 10.579024914807135, 33.01068277715749 4.213269299841173 M3.148782164112923 35.13308818954629 C9.823852740584957 28.74154802680963, 15.125992701568281 22.891385566502407, 32.781607310874826 2.511436369283743 M4.920161252308727 38.412898833559254 C15.790014576997287 25.67870665161378, 29.837288520515038 11.121526772622065, 38.13586216656961 3.2670280321101313 M5.352841586273254 40.325299635225335 C15.67400424141055 28.360817210375448, 25.79492610521383 15.514949708537578, 36.90297173480042 4.4129961014325385 M5.781707622132128 43.777462942238714 C15.407557317122645 33.14992253413489, 25.30400947631373 20.197888095181014, 40.417869482617455 3.561633398290219 M7.107736381723409 42.51171717298385 C17.372956009347966 31.989307086140343, 27.418495448746306 19.397459055742313, 41.556716262790935 4.834559152367952 M11.53475422883178 45.36986332335654 C18.099169761123147 37.36246577763201, 26.766958000622147 25.721292618253642, 42.91732836653878 7.2210675471082375 M10.585982419604015 45.20586008993122 C18.033410181909225 36.68371552058045, 24.256257675452122 29.75901004582557, 43.32296526850601 7.719962407144909 M15.380167771626425 46.22653796519397 C25.180839205177733 33.144690978580584, 35.49292339772602 20.040797348072708, 46.64546142154285 9.591512011622658 M13.140759631555689 47.75620861067681 C25.45871983745884 34.61784236416193, 37.33852609500994 21.024227773788883, 45.58693427507677 11.427624947650006 M18.345177795744323 49.12496256125503 C28.739049315499337 39.84539678181419, 35.86130585231622 29.6191382872341, 48.78341312583891 12.317976449891963 M18.056102982728564 49.194663477552766 C28.805753387658136 37.255842087889704, 39.31548627450499 25.442681412573936, 48.977002868134356 15.088426793269852 M22.782994750404207 49.886731349820984 C29.32173576391799 42.14020381091621, 36.26959231523646 34.03606812383292, 52.213690803645704 16.9115082251974 M22.26527052976325 50.82087679016848 C26.66328680528259 44.02389055486225, 33.165693534716866 36.0735403522521, 50.11490566681937 18.45416848111382 M28.52848707578686 51.92592837328198 C36.11762278757847 40.51101531694184, 41.63582375863342 34.20125523782764, 51.73948753821997 25.825821146711306 M27.725170507762403 51.03187326474222 C36.850997904364206 40.74250239954459, 44.198568951720304 31.134158035337634, 50.053805236810426 24.255449806682364 M33.86903188413952 49.36343286058758 C40.1827900430071 43.223419063714665, 46.179777611801015 37.14477856457052, 52.144890519742475 30.213280506823846 M34.605962011395135 47.71760561655168 C40.78759667663744 41.41572970852333, 45.06726665686237 34.31047985646401, 49.557250438210176 30.238904861193785" stroke="#be4bdb" stroke-width="0.5" fill="none"></path><path d="M21.29835108283373 0.38213543198333966 C26.627557307804008 -0.7895919949787304, 34.3798218724526 0.18026266759341247, 39.262160984849956 3.0260404353147017 C44.14450009724731 5.871818203035991, 48.84578377756889 12.172941901679017, 50.59238575721783 17.456802038311075 C52.33898773686678 22.740662174943132, 51.76032899874464 29.71981438210076, 49.74177286274361 34.72920125510704 C47.72321672674258 39.73858812811332, 43.330090350780765 44.686428526922896, 38.481048941211625 47.513123276348765 C33.632007531642486 50.33981802577463, 26.159497893330556 52.60531917346635, 20.647524405328763 51.68936975166224 C15.13555091732697 50.77342032985813, 8.8134242376351 46.216436689084574, 5.40920801320086 42.017426745524126 C2.0049917887666204 37.81841680196368, 0.2453007867673159 31.979629131923723, 0.22222705872332327 26.49531009029956 C0.19915333067933064 21.0109910486754, 1.0578990349984094 13.601673122055049, 5.270765644936905 9.11151249577916 C9.483632254875399 4.62135186950327, 21.278868882328695 0.8306337714830718, 25.499426718354297 -0.4456536673557743 C29.7199845543799 -1.7219411061946204, 30.416732083189125 0.8645558337461132, 30.594112661090506 1.4537878627460827 M30.05031322111564 -0.3462613319043619 C35.07080723139 -0.09773817094774687, 41.07447530765004 3.570322080736676, 44.477005997890245 7.849680589463766 C47.87953668813045 12.129039098190855, 50.10484795384978 19.619823026630872, 50.46549736255689 25.32988972045818 C50.826146771264 31.039956414285488, 49.87301730603875 37.84675197138426, 46.6409024501329 42.11008075242762 C43.40878759422705 46.37340953347098, 36.65722239904789 49.760675005487, 31.07280822712181 50.90986240671836 C25.488394055195734 52.05904980794972, 18.18304538461591 51.33413757465267, 13.13441741857644 49.00520515981579 C8.085789452536972 46.6762727449789, 2.8381316242401913 41.917478907019245, 0.7810404308850032 36.936267917697066 C-1.276050762470185 31.955056928374887, -1.2063082062699226 24.67135932333721, 0.7918702584453108 19.11793922388272 C2.7900487231605444 13.564519124428227, 7.8841338252075035 6.89503831738017, 12.770111219176403 3.6157473209701187 C17.656088613145304 0.3364563245600678, 27.35204536225455 0.16198312317196262, 30.107734622258707 -0.5578067545775873 C32.863423882262865 -1.2775966323271373, 29.212902832264994 -1.3137270361722062, 29.30424677920135 -0.7029919455271809" stroke="#000000" stroke-width="1" fill="none"></path></g><g><g transform="translate(254.658203125 168.5234375) rotate(0 8.986546120289745 -14.353716357424844)"><path d="M0.4172978360205888 0.18384254984557624 C3.1524983166406555 -4.765215772266189, 13.602000669514139 -24.082973549639185, 16.575442345812917 -28.891275264695288 M-0.8227595294080674 -0.7652440568245948 C2.268124524100373 -5.632555484219144, 15.678055198931444 -23.20478404685234, 18.795851769987493 -27.667960933689027" stroke="#000000" stroke-width="1" fill="none"></path></g></g><g><g transform="translate(331.857421875 164.69140625) rotate(0 -11.60861980728805 -12.648436351493046)"><path d="M0.3398334581404925 0.10085789971053605 C-3.726830812419454 -4.304052549476425, -19.73337411892911 -21.171626076971492, -23.557073072716594 -25.397730602696537 M-0.9408927056752145 -0.8917956482805312 C-4.724561382091293 -4.6463811788397535, -17.666936275319507 -20.400477197909108, -21.41648814952001 -24.302902980390936" stroke="#000000" stroke-width="1" fill="none"></path></g></g><g><g transform="translate(128.677734375 170.017578125) rotate(0 -10.478062450811308 -14.650843451544631)"><path d="M-1.1098852057009936 -0.0687643926590682 C-4.684608048076431 -4.984750155732035, -17.067202708994348 -24.29027315787971, -20.45021679587662 -29.232922510430217 M0.5082863319665192 -1.1504696441441775 C-3.3228181508431835 -5.924620809629559, -18.199257297044 -23.30729290254414, -21.464411233589054 -27.932625327184795" stroke="#000000" stroke-width="1" fill="none"></path></g></g><g><g transform="translate(250.255859375 89.205078125) rotate(0 -16.62229020541531 -14.954987219283367)"><path d="M-0.648294560238719 -0.22671728320419793 C-6.398327513659994 -4.856344173227747, -28.17055151474972 -23.036829942340653, -33.57700879983604 -27.725370635464788 M1.212212066296488 -1.3913478022255004 C-4.765244242108118 -6.40374309256052, -28.666883757070952 -25.380499030097077, -34.456792477127166 -29.683257155362515" stroke="#000000" stroke-width="1" fill="none"></path></g></g><g><g transform="translate(116.513671875 92.283203125) rotate(0 21.172660126164544 -16.179339449862)"><path d="M-0.2649951975792646 0.4168176513165236 C6.778417563314239 -4.887702300027013, 35.68520446208616 -25.70491584725678, 42.61031544990838 -31.15432372279465 M1.7967435943521561 -0.40995702708140014 C8.739448250277588 -6.095411892179399, 35.76392535760378 -27.66856831634417, 42.18981450373307 -32.77549655104056" stroke="#000000" stroke-width="1" fill="none"></path></g></g><g transform="translate(33 189.814453125) rotate(0 6 12.5)"><text x="0" y="20" font-family="Cascadia, Segoe UI Emoji" font-size="20px" fill="#000000" text-anchor="start" style="white-space: pre;" direction="ltr">A</text></g><g transform="translate(130.57421875 189.267578125) rotate(0 6 12.5)"><text x="6" y="20" font-family="Cascadia, Segoe UI Emoji" font-size="20px" fill="#000000" text-anchor="middle" style="white-space: pre;" direction="ltr">B</text></g><g transform="translate(231.859375 186.501953125) rotate(0 6 12.5)"><text x="6" y="20" font-family="Cascadia, Segoe UI Emoji" font-size="20px" fill="#000000" text-anchor="middle" style="white-space: pre;" direction="ltr">C</text></g><g transform="translate(333.796875 187.107421875) rotate(0 6 12.5)"><text x="6" y="20" font-family="Cascadia, Segoe UI Emoji" font-size="20px" fill="#000000" text-anchor="middle" style="white-space: pre;" direction="ltr">D</text></g><g transform="translate(10 256.314453125) rotate(0 29.5 12.5)"><text x="0" y="20" font-family="Cascadia, Segoe UI Emoji" font-size="20px" fill="#000000" text-anchor="start" style="white-space: pre;" direction="ltr">Alice</text></g><g transform="translate(121.5 256.314453125) rotate(0 17.5 12.5)"><text x="0" y="20" font-family="Cascadia, Segoe UI Emoji" font-size="20px" fill="#000000" text-anchor="start" style="white-space: pre;" direction="ltr">Bob</text></g><g transform="translate(204.5 256.314453125) rotate(0 41 12.5)"><text x="0" y="20" font-family="Cascadia, Segoe UI Emoji" font-size="20px" fill="#000000" text-anchor="start" style="white-space: pre;" direction="ltr">Charlie</text></g><g transform="translate(320.5 256.314453125) rotate(0 23.5 12.5)"><text x="0" y="20" font-family="Cascadia, Segoe UI Emoji" font-size="20px" fill="#000000" text-anchor="start" style="white-space: pre;" direction="ltr">Dave</text></g></svg>