<svg width="269" height="107" viewBox="0 0 269 107" fill="none" xmlns="http://www.w3.org/2000/svg">
<rect x="58" y="64" width="37" height="29" fill="#161730"/>
<path d="M67.1961 1.00744L67.1355 1H67.0744H11.4831H10.5902L10.4895 1.8872L10.0386 5.85921L9.94748 6.66175L10.7129 6.91966L21.8204 10.6623V96.1734L10.6747 100.008L9.91586 100.269L10.0064 101.066L10.4573 105.038L10.5594 105.938L11.4644 105.925L32.4184 105.642L53.3079 105.925L54.2502 105.938L54.3188 104.998L54.6087 101.026L54.6647 100.26L53.9383 100.008L42.8554 96.1747V60.7518H56.3813H56.4983L56.6121 60.7247C59.809 59.9662 65.5734 58.5222 70.5321 57.2694C73.0128 56.6427 75.2941 56.0633 76.9552 55.6406C77.7858 55.4292 78.4614 55.257 78.9293 55.1377L79.4689 55L79.6096 54.964L79.6456 54.9549L79.6546 54.9525L79.6569 54.9519L79.6575 54.9518C79.6576 54.9518 79.6577 54.9518 79.4101 53.9829L79.6577 54.9518L80.0425 54.8534L80.255 54.5178L94.8453 31.4739L95.1563 30.9826L94.8832 30.4693L80.2929 3.04348L80.0485 2.58396L79.5318 2.52059L67.1961 1.00744ZM72.0171 40.6171L53.8075 53.0501L42.8876 51.0089V10.8541L53.7954 9.4382L72.0226 21.2089L77.4279 30.9375L72.0171 40.6171Z" stroke="white" stroke-width="2"/>
<rect y="64" width="179" height="24" fill="#161730"/>
<path d="M12.656 82.018H22.826V80.128H15.842C17.75 78.976 18.902 78.184 19.82 77.392C21.764 75.736 22.646 74.224 22.646 72.37C22.646 69.724 20.81 68.032 17.516 68.032C13.934 68.032 11.972 70.012 11.972 73.036C11.972 73.45 12.008 73.684 12.152 74.206H14.078C13.934 73.666 13.898 73.468 13.898 73.126C13.898 71.074 15.284 69.76 17.534 69.76C19.478 69.76 20.648 70.768 20.648 72.442C20.648 73.684 20 74.836 18.326 76.258C17.21 77.194 15.644 78.256 12.656 80.128V82.018ZM30.4929 82.288C34.4709 82.288 36.1629 78.976 36.1629 75.16C36.1629 71.344 34.4709 68.032 30.4929 68.032C26.4969 68.032 24.7689 71.344 24.7689 75.16C24.7689 78.976 26.4969 82.288 30.4929 82.288ZM30.4749 80.524C27.8829 80.524 26.7129 78.112 26.7129 75.16C26.7129 72.208 27.8829 69.796 30.4749 69.796C33.0489 69.796 34.2189 72.208 34.2189 75.16C34.2189 78.112 33.0489 80.524 30.4749 80.524ZM38.7947 82.018H48.9647V80.128H41.9807C43.8887 78.976 45.0407 78.184 45.9587 77.392C47.9027 75.736 48.7847 74.224 48.7847 72.37C48.7847 69.724 46.9487 68.032 43.6547 68.032C40.0727 68.032 38.1107 70.012 38.1107 73.036C38.1107 73.45 38.1467 73.684 38.2907 74.206H40.2167C40.0727 73.666 40.0367 73.468 40.0367 73.126C40.0367 71.074 41.4227 69.76 43.6727 69.76C45.6167 69.76 46.7867 70.768 46.7867 72.442C46.7867 73.684 46.1387 74.836 44.4647 76.258C43.3487 77.194 41.7827 78.256 38.7947 80.128V82.018ZM51.5915 82.018H61.7615V80.128H54.7775C56.6855 78.976 57.8375 78.184 58.7555 77.392C60.6995 75.736 61.5815 74.224 61.5815 72.37C61.5815 69.724 59.7455 68.032 56.4515 68.032C52.8695 68.032 50.9075 70.012 50.9075 73.036C50.9075 73.45 50.9435 73.684 51.0875 74.206H53.0135C52.8695 73.666 52.8335 73.468 52.8335 73.126C52.8335 71.074 54.2195 69.76 56.4695 69.76C58.4135 69.76 59.5835 70.768 59.5835 72.442C59.5835 73.684 58.9355 74.836 57.2615 76.258C56.1455 77.194 54.5795 78.256 51.5915 80.128V82.018ZM74.5169 82.018C78.5489 82.036 80.4569 79.462 80.4569 75.214C80.4569 70.444 78.0269 68.32 74.2469 68.32H69.1709L69.1529 82L74.5169 82.018ZM71.0789 80.182V70.138H74.1569C77.0549 70.138 78.4049 71.992 78.4049 75.142C78.4049 78.688 76.7489 80.182 74.1569 80.182H71.0789ZM86.4237 82.288C89.0697 82.288 90.5097 80.542 90.6717 79.21H88.8177C88.5657 79.876 87.7377 80.686 86.4417 80.686C84.8757 80.686 83.9937 79.588 83.8317 77.914L90.6717 77.896V76.474C90.6717 73.9 88.8537 72.262 86.3517 72.262C83.5617 72.262 81.9057 74.332 81.9057 77.248C81.9057 80.128 83.4897 82.288 86.4237 82.288ZM83.8497 76.474C83.8497 74.692 85.0017 73.864 86.3517 73.864C87.7017 73.864 88.7997 74.692 88.7997 76.474H83.8497ZM104.165 72.262C102.905 72.262 101.609 72.694 100.601 74.152C100.079 72.874 99.0352 72.262 97.5772 72.262C96.2812 72.262 95.1112 72.73 94.3552 73.972V72.55H92.4652V82H94.3552V76.924C94.3552 74.998 95.4892 73.864 97.0552 73.864C98.0632 73.864 99.0532 74.35 99.0532 76.474V82H100.943V76.924C100.943 74.998 102.077 73.864 103.643 73.864C104.651 73.864 105.641 74.35 105.641 76.474V82H107.531V76.258C107.531 73.558 106.289 72.262 104.165 72.262ZM113.901 82.288C116.691 82.288 118.491 80.11 118.491 77.266C118.491 74.35 116.691 72.262 113.901 72.262C111.111 72.262 109.275 74.35 109.275 77.266C109.275 80.11 111.111 82.288 113.901 82.288ZM113.883 80.686C112.155 80.686 111.165 79.336 111.165 77.266C111.165 75.214 112.155 73.864 113.883 73.864C115.629 73.864 116.619 75.214 116.619 77.266C116.619 79.336 115.629 80.686 113.883 80.686ZM127.849 82H129.973L133.627 70.336L137.263 82H139.387L143.167 68.32H141.007L138.307 79.714L134.851 68.32H132.385L128.947 79.714L126.247 68.32H124.069L127.849 82ZM147.508 82.288C150.154 82.288 151.594 80.542 151.756 79.21H149.902C149.65 79.876 148.822 80.686 147.526 80.686C145.96 80.686 145.078 79.588 144.916 77.914L151.756 77.896V76.474C151.756 73.9 149.938 72.262 147.436 72.262C144.646 72.262 142.99 74.332 142.99 77.248C142.99 80.128 144.574 82.288 147.508 82.288ZM144.934 76.474C144.934 74.692 146.086 73.864 147.436 73.864C148.786 73.864 149.884 74.692 149.884 76.474H144.934ZM157.527 82.288C160.173 82.288 161.613 80.542 161.775 79.21H159.921C159.669 79.876 158.841 80.686 157.545 80.686C155.979 80.686 155.097 79.588 154.935 77.914L161.775 77.896V76.474C161.775 73.9 159.957 72.262 157.455 72.262C154.665 72.262 153.009 74.332 153.009 77.248C153.009 80.128 154.593 82.288 157.527 82.288ZM154.953 76.474C154.953 74.692 156.105 73.864 157.455 73.864C158.805 73.864 159.903 74.692 159.903 76.474H154.953ZM171.021 82L167.115 77.266L170.697 72.55H168.573L165.459 76.69V68.32H163.569V82H165.459V77.896L168.897 82H171.021ZM184.286 78.13V76.474H177.086V78.13H184.286ZM191.796 82H193.704V75.61L199.428 82H201.822L196.044 75.574C198.996 75.538 201.228 74.764 201.228 72.028C201.228 69.526 199.482 68.32 196.638 68.32H191.796V82ZM193.704 73.972V70.048H196.512C198.402 70.048 199.266 70.822 199.266 72.028C199.266 73.36 198.042 73.972 196.764 73.972H193.704ZM206.766 82.288C209.556 82.288 211.356 80.11 211.356 77.266C211.356 74.35 209.556 72.262 206.766 72.262C203.976 72.262 202.14 74.35 202.14 77.266C202.14 80.11 203.976 82.288 206.766 82.288ZM206.748 80.686C205.02 80.686 204.03 79.336 204.03 77.266C204.03 75.214 205.02 73.864 206.748 73.864C208.494 73.864 209.484 75.214 209.484 77.266C209.484 79.336 208.494 80.686 206.748 80.686ZM216.148 82.288C217.444 82.288 218.614 81.82 219.37 80.416V82H221.26V72.55H219.37V77.626C219.37 79.552 218.218 80.686 216.652 80.686C215.644 80.686 214.672 80.2 214.672 78.076V72.55H212.782V78.292C212.782 80.992 214.024 82.288 216.148 82.288ZM223.457 82H225.347V76.924C225.347 74.998 226.535 73.864 227.957 73.864C229.289 73.864 230.045 74.872 230.045 76.654V82H231.935V76.096C231.935 73.828 230.639 72.262 228.497 72.262C227.399 72.262 226.121 72.676 225.347 73.972V72.55H223.457V82ZM241.217 68.32V73.81C240.497 72.874 239.345 72.262 238.193 72.262C235.619 72.262 233.891 74.26 233.891 77.248C233.891 80.272 235.583 82.288 238.103 82.288C239.327 82.288 240.641 81.694 241.271 80.83V82H243.107V68.32H241.217ZM241.217 77.662C241.217 79.48 240.155 80.668 238.517 80.668C236.879 80.668 235.781 79.3 235.781 77.23C235.781 75.214 236.861 73.882 238.481 73.882C240.137 73.882 241.217 74.998 241.217 76.672V77.662ZM252.054 82H253.944V68.32H249.336V70.21H252.054V82ZM262.278 82.288C266.256 82.288 267.948 78.976 267.948 75.16C267.948 71.344 266.256 68.032 262.278 68.032C258.282 68.032 256.554 71.344 256.554 75.16C256.554 78.976 258.282 82.288 262.278 82.288ZM262.26 80.524C259.668 80.524 258.498 78.112 258.498 75.16C258.498 72.208 259.668 69.796 262.26 69.796C264.834 69.796 266.004 72.208 266.004 75.16C266.004 78.112 264.834 80.524 262.26 80.524Z" fill="white"/>
</svg>
