<svg width="264" height="107" viewBox="0 0 264 107" fill="none" xmlns="http://www.w3.org/2000/svg">
<rect x="104" y="64" width="37" height="29" fill="#161730"/>
<path d="M137.196 1.00744L137.135 1H137.074H81.4831H80.5902L80.4895 1.8872L80.0386 5.85921L79.9475 6.66175L80.7129 6.91966L91.8204 10.6623V96.1734L80.6747 100.008L79.9159 100.269L80.0064 101.066L80.4573 105.038L80.5594 105.938L81.4644 105.925L102.418 105.642L123.308 105.925L124.25 105.938L124.319 104.998L124.609 101.026L124.665 100.26L123.938 100.008L112.855 96.1747V60.7518H126.381H126.498L126.612 60.7247C129.809 59.9662 135.573 58.5222 140.532 57.2694C143.013 56.6427 145.294 56.0633 146.955 55.6406C147.786 55.4292 148.461 55.257 148.929 55.1377L149.469 55L149.61 54.964L149.646 54.9549L149.655 54.9525L149.657 54.9519L149.658 54.9518C149.658 54.9518 149.658 54.9517 149.41 53.9829L149.658 54.9517L150.043 54.8534L150.255 54.5178L164.845 31.4739L165.156 30.9826L164.883 30.4693L150.293 3.04348L150.048 2.58396L149.532 2.52059L137.196 1.00744ZM142.017 40.6171L123.808 53.0501L112.888 51.0089V10.8541L123.795 9.4382L142.023 21.2089L147.428 30.9375L142.017 40.6171Z" stroke="white" stroke-width="2"/>
<rect x="33" y="64" width="179" height="24" fill="#161730"/>
<path d="M1.404 82.018H12.042V79.336H5.67C7.416 78.274 8.622 77.464 9.558 76.636C11.106 75.25 11.862 73.954 11.862 72.298C11.862 69.814 10.152 68.032 6.606 68.032C2.7 68.032 0.864 70.156 0.864 73.09C0.864 73.504 0.9 73.738 1.008 74.206H3.816C3.726 73.756 3.654 73.54 3.654 73.144C3.654 71.218 4.968 70.39 6.516 70.39C8.028 70.39 9.036 71.146 9.036 72.406C9.036 73.414 8.37 74.368 6.93 75.556C5.724 76.528 4.014 77.644 1.404 79.336V82.018ZM19.7423 82.288C23.6303 82.288 25.7003 79.192 25.7003 75.16C25.7003 71.128 23.6303 68.032 19.7423 68.032C15.8543 68.032 13.7663 71.128 13.7663 75.16C13.7663 79.192 15.8543 82.288 19.7423 82.288ZM19.7423 79.93C17.6723 79.93 16.5743 77.878 16.5743 75.16C16.5743 72.442 17.6723 70.39 19.7423 70.39C21.8123 70.39 22.8923 72.442 22.8923 75.16C22.8923 77.878 21.8123 79.93 19.7423 79.93ZM27.9645 82.018H38.6025V79.336H32.2305C33.9765 78.274 35.1825 77.464 36.1185 76.636C37.6665 75.25 38.4225 73.954 38.4225 72.298C38.4225 69.814 36.7125 68.032 33.1665 68.032C29.2605 68.032 27.4245 70.156 27.4245 73.09C27.4245 73.504 27.4605 73.738 27.5685 74.206H30.3765C30.2865 73.756 30.2145 73.54 30.2145 73.144C30.2145 71.218 31.5285 70.39 33.0765 70.39C34.5885 70.39 35.5965 71.146 35.5965 72.406C35.5965 73.414 34.9305 74.368 33.4905 75.556C32.2845 76.528 30.5745 77.644 27.9645 79.336V82.018ZM40.8669 82.018H51.5049V79.336H45.1329C46.8789 78.274 48.0849 77.464 49.0209 76.636C50.5689 75.25 51.3249 73.954 51.3249 72.298C51.3249 69.814 49.6149 68.032 46.0689 68.032C42.1629 68.032 40.3269 70.156 40.3269 73.09C40.3269 73.504 40.3629 73.738 40.4709 74.206H43.2789C43.1889 73.756 43.1169 73.54 43.1169 73.144C43.1169 71.218 44.4309 70.39 45.9789 70.39C47.4909 70.39 48.4989 71.146 48.4989 72.406C48.4989 73.414 47.8329 74.368 46.3929 75.556C45.1869 76.528 43.4769 77.644 40.8669 79.336V82.018ZM63.9731 82C68.1851 82.018 70.3091 79.984 70.3091 75.124C70.3091 70.156 68.0591 68.32 64.0091 68.32H58.4111V82H63.9731ZM61.0931 79.606V70.714H63.5951C66.2591 70.714 67.4471 71.884 67.4471 75.16C67.4471 78.634 66.0971 79.606 63.5951 79.606H61.0931ZM76.2155 82.288C78.9155 82.288 80.5895 80.506 80.7515 78.886H78.1415C77.9795 79.552 77.3135 80.182 76.3055 80.182C75.0995 80.182 74.3795 79.336 74.2355 77.986H80.7335V76.852C80.7335 73.936 78.7355 72.262 76.1615 72.262C73.2995 72.262 71.5895 74.314 71.5895 77.266C71.5895 80.182 73.2635 82.288 76.2155 82.288ZM74.2535 76.348C74.2535 75.052 75.0995 74.368 76.2155 74.368C77.2775 74.368 78.1055 75.07 78.1055 76.348H74.2535ZM94.7607 72.262C93.5187 72.262 92.2587 72.676 91.2507 74.188C90.7287 72.91 89.6667 72.262 88.1727 72.262C86.8767 72.262 85.7787 72.73 85.0227 73.972V72.55H82.3587V82H85.0227V77.302C85.0227 75.502 85.9407 74.368 87.2187 74.368C88.1187 74.368 88.9467 74.926 88.9467 77.104V82H91.6107V77.302C91.6107 75.502 92.5287 74.368 93.8067 74.368C94.7067 74.368 95.5347 74.926 95.5347 77.104V82H98.1987V76.33C98.1987 73.63 96.9567 72.262 94.7607 72.262ZM104.591 82.288C107.525 82.288 109.361 80.164 109.361 77.266C109.361 74.332 107.525 72.262 104.591 72.262C101.639 72.262 99.7848 74.332 99.7848 77.266C99.7848 80.164 101.639 82.288 104.591 82.288ZM104.573 80.182C103.277 80.182 102.395 79.138 102.395 77.266C102.395 75.412 103.277 74.368 104.573 74.368C105.869 74.368 106.751 75.412 106.751 77.266C106.751 79.138 105.869 80.182 104.573 80.182ZM118.358 82H121.328L124.55 71.092L127.772 82H130.76L134.45 68.32H131.48L129.176 78.904L126.206 68.32H122.894L119.942 78.904L117.62 68.32H114.65L118.358 82ZM138.882 82.288C141.582 82.288 143.256 80.506 143.418 78.886H140.808C140.646 79.552 139.98 80.182 138.972 80.182C137.766 80.182 137.046 79.336 136.902 77.986H143.4V76.852C143.4 73.936 141.402 72.262 138.828 72.262C135.966 72.262 134.256 74.314 134.256 77.266C134.256 80.182 135.93 82.288 138.882 82.288ZM136.92 76.348C136.92 75.052 137.766 74.368 138.882 74.368C139.944 74.368 140.772 75.07 140.772 76.348H136.92ZM149.165 82.288C151.865 82.288 153.539 80.506 153.701 78.886H151.091C150.929 79.552 150.263 80.182 149.255 80.182C148.049 80.182 147.329 79.336 147.185 77.986H153.683V76.852C153.683 73.936 151.685 72.262 149.111 72.262C146.249 72.262 144.539 74.314 144.539 77.266C144.539 80.182 146.213 82.288 149.165 82.288ZM147.203 76.348C147.203 75.052 148.049 74.368 149.165 74.368C150.227 74.368 151.055 75.07 151.055 76.348H147.203ZM163.228 81.982L160.168 77.266L163.048 72.55H160.348L157.972 76.6V68.32H155.308V82H157.972V78.472L160.528 81.982H163.228ZM176.131 78.346V76.15H168.931V78.346H176.131ZM183.146 82H185.828V76.402L190.544 82H193.82L188.834 76.204C191.336 75.952 193.046 74.71 193.046 72.298C193.046 69.688 191.156 68.32 188.276 68.32H183.146V82ZM185.828 74.116V70.66H187.862C189.266 70.66 190.22 71.254 190.22 72.424C190.22 73.648 189.122 74.116 187.988 74.116H185.828ZM198.792 82.288C201.726 82.288 203.562 80.164 203.562 77.266C203.562 74.332 201.726 72.262 198.792 72.262C195.84 72.262 193.986 74.332 193.986 77.266C193.986 80.164 195.84 82.288 198.792 82.288ZM198.774 80.182C197.478 80.182 196.596 79.138 196.596 77.266C196.596 75.412 197.478 74.368 198.774 74.368C200.07 74.368 200.952 75.412 200.952 77.266C200.952 79.138 200.07 80.182 198.774 80.182ZM208.296 82.288C209.592 82.288 210.672 81.82 211.428 80.488V82H214.092V72.55H211.428V77.23C211.428 79.048 210.528 80.182 209.232 80.182C208.332 80.182 207.504 79.624 207.504 77.446V72.55H204.84V78.22C204.84 80.92 206.082 82.288 208.296 82.288ZM216.04 82H218.704V77.302C218.704 75.502 219.64 74.368 220.846 74.368C221.926 74.368 222.628 75.214 222.628 77.194V82H225.292V76.24C225.292 73.774 224.014 72.262 221.818 72.262C220.63 72.262 219.46 72.712 218.704 73.972V72.55H216.04V82ZM234.021 68.32V73.72C233.337 72.82 232.293 72.262 231.231 72.262C228.747 72.262 227.109 74.26 227.109 77.248C227.109 80.272 228.765 82.288 231.231 82.288C232.293 82.288 233.463 81.748 234.075 80.92V82H236.685V68.32H234.021ZM234.021 77.59C234.021 79.156 233.175 80.164 231.897 80.164C230.583 80.164 229.719 79.012 229.719 77.248C229.719 75.52 230.583 74.386 231.879 74.386C233.175 74.386 234.021 75.358 234.021 76.834V77.59ZM245.413 82H248.059V68.32H242.695V70.984H245.413V82ZM256.467 82.288C260.355 82.288 262.425 79.192 262.425 75.16C262.425 71.128 260.355 68.032 256.467 68.032C252.579 68.032 250.491 71.128 250.491 75.16C250.491 79.192 252.579 82.288 256.467 82.288ZM256.467 79.93C254.397 79.93 253.299 77.878 253.299 75.16C253.299 72.442 254.397 70.39 256.467 70.39C258.537 70.39 259.617 72.442 259.617 75.16C259.617 77.878 258.537 79.93 256.467 79.93Z" fill="white"/>
</svg>
