<svg width="660" height="372" viewBox="0 0 660 372" fill="none" xmlns="http://www.w3.org/2000/svg">
<rect width="660" height="371.25" fill="black"/>
<path d="M199.404 248.378H210.042V245.696H203.67C205.416 244.634 206.622 243.824 207.558 242.996C209.106 241.61 209.862 240.314 209.862 238.658C209.862 236.174 208.152 234.392 204.606 234.392C200.7 234.392 198.864 236.516 198.864 239.45C198.864 239.864 198.9 240.098 199.008 240.566H201.816C201.726 240.116 201.654 239.9 201.654 239.504C201.654 237.578 202.968 236.75 204.516 236.75C206.028 236.75 207.036 237.506 207.036 238.766C207.036 239.774 206.37 240.728 204.93 241.916C203.724 242.888 202.014 244.004 199.404 245.696V248.378ZM217.742 248.648C221.63 248.648 223.7 245.552 223.7 241.52C223.7 237.488 221.63 234.392 217.742 234.392C213.854 234.392 211.766 237.488 211.766 241.52C211.766 245.552 213.854 248.648 217.742 248.648ZM217.742 246.29C215.672 246.29 214.574 244.238 214.574 241.52C214.574 238.802 215.672 236.75 217.742 236.75C219.812 236.75 220.892 238.802 220.892 241.52C220.892 244.238 219.812 246.29 217.742 246.29ZM225.965 248.378H236.603V245.696H230.231C231.977 244.634 233.183 243.824 234.119 242.996C235.667 241.61 236.423 240.314 236.423 238.658C236.423 236.174 234.713 234.392 231.167 234.392C227.261 234.392 225.425 236.516 225.425 239.45C225.425 239.864 225.461 240.098 225.569 240.566H228.377C228.287 240.116 228.215 239.9 228.215 239.504C228.215 237.578 229.529 236.75 231.077 236.75C232.589 236.75 233.597 237.506 233.597 238.766C233.597 239.774 232.931 240.728 231.491 241.916C230.285 242.888 228.575 244.004 225.965 245.696V248.378ZM238.867 248.378H249.505V245.696H243.133C244.879 244.634 246.085 243.824 247.021 242.996C248.569 241.61 249.325 240.314 249.325 238.658C249.325 236.174 247.615 234.392 244.069 234.392C240.163 234.392 238.327 236.516 238.327 239.45C238.327 239.864 238.363 240.098 238.471 240.566H241.279C241.189 240.116 241.117 239.9 241.117 239.504C241.117 237.578 242.431 236.75 243.979 236.75C245.491 236.75 246.499 237.506 246.499 238.766C246.499 239.774 245.833 240.728 244.393 241.916C243.187 242.888 241.477 244.004 238.867 245.696V248.378ZM261.973 248.36C266.185 248.378 268.309 246.344 268.309 241.484C268.309 236.516 266.059 234.68 262.009 234.68H256.411V248.36H261.973ZM259.093 245.966V237.074H261.595C264.259 237.074 265.447 238.244 265.447 241.52C265.447 244.994 264.097 245.966 261.595 245.966H259.093ZM274.216 248.648C276.916 248.648 278.59 246.866 278.752 245.246H276.142C275.98 245.912 275.314 246.542 274.306 246.542C273.1 246.542 272.38 245.696 272.236 244.346H278.734V243.212C278.734 240.296 276.736 238.622 274.162 238.622C271.3 238.622 269.59 240.674 269.59 243.626C269.59 246.542 271.264 248.648 274.216 248.648ZM272.254 242.708C272.254 241.412 273.1 240.728 274.216 240.728C275.278 240.728 276.106 241.43 276.106 242.708H272.254ZM292.761 238.622C291.519 238.622 290.259 239.036 289.251 240.548C288.729 239.27 287.667 238.622 286.173 238.622C284.877 238.622 283.779 239.09 283.023 240.332V238.91H280.359V248.36H283.023V243.662C283.023 241.862 283.941 240.728 285.219 240.728C286.119 240.728 286.947 241.286 286.947 243.464V248.36H289.611V243.662C289.611 241.862 290.529 240.728 291.807 240.728C292.707 240.728 293.535 241.286 293.535 243.464V248.36H296.199V242.69C296.199 239.99 294.957 238.622 292.761 238.622ZM302.591 248.648C305.525 248.648 307.361 246.524 307.361 243.626C307.361 240.692 305.525 238.622 302.591 238.622C299.639 238.622 297.785 240.692 297.785 243.626C297.785 246.524 299.639 248.648 302.591 248.648ZM302.573 246.542C301.277 246.542 300.395 245.498 300.395 243.626C300.395 241.772 301.277 240.728 302.573 240.728C303.869 240.728 304.751 241.772 304.751 243.626C304.751 245.498 303.869 246.542 302.573 246.542ZM316.358 248.36H319.328L322.55 237.452L325.772 248.36H328.76L332.45 234.68H329.48L327.176 245.264L324.206 234.68H320.894L317.942 245.264L315.62 234.68H312.65L316.358 248.36ZM336.882 248.648C339.582 248.648 341.256 246.866 341.418 245.246H338.808C338.646 245.912 337.98 246.542 336.972 246.542C335.766 246.542 335.046 245.696 334.902 244.346H341.4V243.212C341.4 240.296 339.402 238.622 336.828 238.622C333.966 238.622 332.256 240.674 332.256 243.626C332.256 246.542 333.93 248.648 336.882 248.648ZM334.92 242.708C334.92 241.412 335.766 240.728 336.882 240.728C337.944 240.728 338.772 241.43 338.772 242.708H334.92ZM347.165 248.648C349.865 248.648 351.539 246.866 351.701 245.246H349.091C348.929 245.912 348.263 246.542 347.255 246.542C346.049 246.542 345.329 245.696 345.185 244.346H351.683V243.212C351.683 240.296 349.685 238.622 347.111 238.622C344.249 238.622 342.539 240.674 342.539 243.626C342.539 246.542 344.213 248.648 347.165 248.648ZM345.203 242.708C345.203 241.412 346.049 240.728 347.165 240.728C348.227 240.728 349.055 241.43 349.055 242.708H345.203ZM361.228 248.342L358.168 243.626L361.048 238.91H358.348L355.972 242.96V234.68H353.308V248.36H355.972V244.832L358.528 248.342H361.228ZM374.131 244.706V242.51H366.931V244.706H374.131ZM381.146 248.36H383.828V242.762L388.544 248.36H391.82L386.834 242.564C389.336 242.312 391.046 241.07 391.046 238.658C391.046 236.048 389.156 234.68 386.276 234.68H381.146V248.36ZM383.828 240.476V237.02H385.862C387.266 237.02 388.22 237.614 388.22 238.784C388.22 240.008 387.122 240.476 385.988 240.476H383.828ZM396.792 248.648C399.726 248.648 401.562 246.524 401.562 243.626C401.562 240.692 399.726 238.622 396.792 238.622C393.84 238.622 391.986 240.692 391.986 243.626C391.986 246.524 393.84 248.648 396.792 248.648ZM396.774 246.542C395.478 246.542 394.596 245.498 394.596 243.626C394.596 241.772 395.478 240.728 396.774 240.728C398.07 240.728 398.952 241.772 398.952 243.626C398.952 245.498 398.07 246.542 396.774 246.542ZM406.296 248.648C407.592 248.648 408.672 248.18 409.428 246.848V248.36H412.092V238.91H409.428V243.59C409.428 245.408 408.528 246.542 407.232 246.542C406.332 246.542 405.504 245.984 405.504 243.806V238.91H402.84V244.58C402.84 247.28 404.082 248.648 406.296 248.648ZM414.04 248.36H416.704V243.662C416.704 241.862 417.64 240.728 418.846 240.728C419.926 240.728 420.628 241.574 420.628 243.554V248.36H423.292V242.6C423.292 240.134 422.014 238.622 419.818 238.622C418.63 238.622 417.46 239.072 416.704 240.332V238.91H414.04V248.36ZM432.021 234.68V240.08C431.337 239.18 430.293 238.622 429.231 238.622C426.747 238.622 425.109 240.62 425.109 243.608C425.109 246.632 426.765 248.648 429.231 248.648C430.293 248.648 431.463 248.108 432.075 247.28V248.36H434.685V234.68H432.021ZM432.021 243.95C432.021 245.516 431.175 246.524 429.897 246.524C428.583 246.524 427.719 245.372 427.719 243.608C427.719 241.88 428.583 240.746 429.879 240.746C431.175 240.746 432.021 241.718 432.021 243.194V243.95ZM443.413 248.36H446.059V234.68H440.695V237.344H443.413V248.36ZM454.467 248.648C458.355 248.648 460.425 245.552 460.425 241.52C460.425 237.488 458.355 234.392 454.467 234.392C450.579 234.392 448.491 237.488 448.491 241.52C448.491 245.552 450.579 248.648 454.467 248.648ZM454.467 246.29C452.397 246.29 451.299 244.238 451.299 241.52C451.299 238.802 452.397 236.75 454.467 236.75C456.537 236.75 457.617 238.802 457.617 241.52C457.617 244.238 456.537 246.29 454.467 246.29Z" fill="white"/>
<path d="M344.196 116.007L344.135 116H344.074H288.483H287.59L287.49 116.887L287.039 120.859L286.947 121.662L287.713 121.92L298.82 125.662V211.173L287.675 215.008L286.916 215.269L287.006 216.066L287.457 220.038L287.559 220.938L288.464 220.925L309.418 220.642L330.308 220.925L331.25 220.938L331.319 219.998L331.609 216.026L331.665 215.26L330.938 215.008L319.855 211.175V175.752H333.381H333.498L333.612 175.725C336.809 174.966 342.573 173.522 347.532 172.269C350.013 171.643 352.294 171.063 353.955 170.641C354.786 170.429 355.461 170.257 355.929 170.138L356.469 170L356.61 169.964L356.646 169.955L356.655 169.953L356.657 169.952L356.658 169.952C356.658 169.952 356.658 169.952 356.41 168.983L356.658 169.952L357.043 169.853L357.255 169.518L371.845 146.474L372.156 145.983L371.883 145.469L357.293 118.043L357.048 117.584L356.532 117.521L344.196 116.007ZM349.017 155.617L330.808 168.05L319.888 166.009V125.854L330.795 124.438L349.023 136.209L354.428 145.937L349.017 155.617Z" stroke="white" stroke-width="2"/>
<path d="M309.23 219.925V223.669L312.342 221.587L348.882 197.143L351.367 195.481L348.882 193.818L312.342 169.374L309.23 167.292V171.036V175.851V219.925Z" fill="#FF0080" stroke="black" stroke-width="4"/>
</svg>
